<svg width="264" height="154" viewBox="0 0 264 154" fill="none" xmlns="http://www.w3.org/2000/svg">
<rect width="263.5" height="154" fill="#F3F3F5"/>
<g clip-path="url(#clip0_6_6628)">
<mask id="mask0_6_6628" style="mask-type:luminance" maskUnits="userSpaceOnUse" x="88" y="27" width="88" height="100">
<path d="M175.214 27H88.7856V127H175.214V27Z" fill="white"/>
</mask>
<g mask="url(#mask0_6_6628)">
<path fill-rule="evenodd" clip-rule="evenodd" d="M141.477 50.6168C138.165 42.7027 137.54 43.2988 141.477 35.6263C145.357 43.3277 144.856 42.693 141.477 50.6168ZM131.775 50.9229C128.459 43.0056 127.831 43.6049 131.775 35.9357C135.648 43.6308 135.154 42.9991 131.775 50.9229ZM121.463 50.9229C118.148 43.0056 117.519 43.6049 121.463 35.9357C125.33 43.6308 124.836 42.9991 121.463 50.9229ZM128.437 59.0369H118.744L128.437 69.3968V59.0369ZM128.437 54.5159H108.253L128.44 76.5666V72.9254L113.217 56.6523H128.437V54.5159ZM130.685 52.1636L128.437 52.17H102.825L128.443 79.557V85.7955H130.685V52.1636ZM135.523 59.0369H145.219L135.523 69.3968V59.0369ZM135.523 54.5159H155.71L135.523 76.5666V72.9254L150.746 56.6523H135.523V54.5159ZM133.285 52.1636L135.523 52.17H161.148L135.523 79.557V85.7955H133.285V52.1636ZM146.851 47.9648H170.558L139.354 81.3293V89.9879L134.506 89.9943H129.453L124.615 89.9879V81.3293L93.4082 47.9648H115.984L115.801 47.4718L115.618 46.9595L115.448 46.4341L115.294 45.896L115.156 45.3354L115.041 44.7585L114.961 44.1559L114.919 43.5405L114.91 42.9121L114.942 42.2805L115.012 41.6553L115.118 41.0496L115.256 40.4599L115.419 39.8798L115.602 39.3159L115.807 38.7617L116.032 38.2074L116.269 37.6532L116.532 37.0828L116.811 36.4931L117.106 35.8873L117.423 35.2525L117.766 34.579L121.502 27.3029L125.167 34.608L125.497 35.2718L125.808 35.9034L126.103 36.5157L126.375 37.0957L126.6 37.6048L126.847 37.0764L127.126 36.4867L127.421 35.8809L127.735 35.2461L128.078 34.5726L131.813 27.3029L135.478 34.608L135.811 35.2718L136.126 35.9034L136.421 36.5157L136.546 36.7896L136.555 36.7703L136.831 36.1806L137.136 35.5748L137.447 34.9367L137.793 34.2697L141.519 27L145.183 34.3051L145.52 34.9754L145.825 35.607L146.12 36.216L146.399 36.7928L146.652 37.36L146.889 37.9142L147.117 38.4652L147.319 39.0162L147.502 39.5673L147.671 40.1409L147.809 40.7241L147.918 41.3267L147.992 41.939L148.031 42.5674V43.2021L147.989 43.8176L147.909 44.4233L147.803 45.0066L147.671 45.5737L147.518 46.1151L147.351 46.6436L147.168 47.1592L146.969 47.6781L146.857 47.9681L146.851 47.9648Z" fill="#007A45"/>
<path fill-rule="evenodd" clip-rule="evenodd" d="M175.214 101.098L175.131 126.999H166.881L166.945 108.258H159.157L159.093 126.999H150.849L150.933 101.098H175.214Z" fill="#007A45"/>
<path fill-rule="evenodd" clip-rule="evenodd" d="M128.46 126.939H120.217L120.3 101.027H128.55L128.518 110.131H136.309L136.335 101.027H144.585L144.501 126.939H136.252L136.29 117.255H128.492L128.46 126.939Z" fill="#007A45"/>
<path fill-rule="evenodd" clip-rule="evenodd" d="M88.7856 126.999L88.869 101.098H97.1188L97.0932 109.476L104.346 101.098H114.032L104.811 110.842L114.92 126.999H105.035L98.5296 117.171L97.0611 118.792L97.029 126.999H88.7856Z" fill="#007A45"/>
</g>
</g>
<defs>
<clipPath id="clip0_6_6628">
<rect width="86.4288" height="100" fill="white" transform="translate(88.7856 27)"/>
</clipPath>
</defs>
</svg>
