<svg width="26" height="26" viewBox="0 0 26 26" fill="none" xmlns="http://www.w3.org/2000/svg">
<path d="M24.5979 12.2351L17.0146 4.65176C16.8103 4.45442 16.5366 4.34523 16.2526 4.3477C15.9686 4.35017 15.6968 4.4641 15.496 4.66496C15.2951 4.86582 15.1812 5.13753 15.1787 5.42158C15.1763 5.70562 15.2854 5.97928 15.4828 6.18359L21.2169 11.9177H2.16536C1.87805 11.9177 1.6025 12.0318 1.39933 12.235C1.19617 12.4381 1.08203 12.7137 1.08203 13.001C1.08203 13.2883 1.19617 13.5639 1.39933 13.767C1.6025 13.9702 1.87805 14.0843 2.16536 14.0843H21.2169L15.4828 19.8184C15.3793 19.9184 15.2968 20.0379 15.24 20.1701C15.1832 20.3022 15.1533 20.4444 15.1521 20.5882C15.1508 20.7321 15.1783 20.8747 15.2327 21.0079C15.2872 21.141 15.3676 21.262 15.4694 21.3637C15.5711 21.4654 15.692 21.5458 15.8252 21.6003C15.9583 21.6548 16.101 21.6822 16.2448 21.681C16.3886 21.6797 16.5308 21.6498 16.663 21.593C16.7951 21.5363 16.9147 21.4537 17.0146 21.3503L24.5979 13.7669C24.801 13.5638 24.9151 13.2883 24.9151 13.001C24.9151 12.7137 24.801 12.4382 24.5979 12.2351Z" fill="#EA9D0F"/>
</svg>
