<svg width="44" height="44" viewBox="0 0 44 44" fill="none" xmlns="http://www.w3.org/2000/svg">
<g clip-path="url(#clip0_6_13200)">
<path d="M31.725 15.0193C32.3964 15.6906 32.3964 16.779 31.725 17.45L20.1946 28.9807C19.5233 29.6518 18.4353 29.6518 17.7639 28.9807L12.275 23.4915C11.6036 22.8204 11.6036 21.7321 12.275 21.0611C12.946 20.3897 14.0343 20.3897 14.7054 21.0611L18.9791 25.3348L29.2943 15.0193C29.9657 14.3482 31.054 14.3482 31.725 15.0193ZM44 22C44 34.1605 34.1588 44 22 44C9.83951 44 0 34.1588 0 22C0 9.83951 9.84119 0 22 0C34.1605 0 44 9.84119 44 22ZM40.5625 22C40.5625 11.7395 32.2591 3.4375 22 3.4375C11.7395 3.4375 3.4375 11.7409 3.4375 22C3.4375 32.2605 11.7409 40.5625 22 40.5625C32.2605 40.5625 40.5625 32.2591 40.5625 22Z" fill="#313F69"/>
</g>
<defs>
<clipPath id="clip0_6_13200">
<rect width="44" height="44" fill="white"/>
</clipPath>
</defs>
</svg>
