<?xml version="1.0" encoding="UTF-8" standalone="no"?>
<svg
   width="24"
   height="24"
   viewBox="0 0 24 24"
   fill="none"
   version="1.1"
   id="svg1"
   sodipodi:docname="cross.svg"
   inkscape:version="1.3.2 (091e20e, 2023-11-25, custom)"
   xmlns:inkscape="http://www.inkscape.org/namespaces/inkscape"
   xmlns:sodipodi="http://sodipodi.sourceforge.net/DTD/sodipodi-0.dtd"
   xmlns="http://www.w3.org/2000/svg"
   xmlns:svg="http://www.w3.org/2000/svg">
  <defs
     id="defs1" />
  <sodipodi:namedview
     id="namedview1"
     pagecolor="#ffffff"
     bordercolor="#cccccc"
     borderopacity="1"
     inkscape:showpageshadow="0"
     inkscape:pageopacity="1"
     inkscape:pagecheckerboard="0"
     inkscape:deskcolor="#d1d1d1"
     inkscape:zoom="48.875"
     inkscape:cx="11.98977"
     inkscape:cy="12"
     inkscape:window-width="3440"
     inkscape:window-height="1369"
     inkscape:window-x="-8"
     inkscape:window-y="-8"
     inkscape:window-maximized="1"
     inkscape:current-layer="svg1" />
  <path
     style="color:#000000;fill:#141414;stroke-linecap:round;-inkscape-stroke:none"
     d="m 6,5 a 1,1 0 0 0 -0.7070313,0.2929687 1,1 0 0 0 0,1.4140625 L 10.585938,12 5.2929687,17.292969 a 1,1 0 0 0 0,1.414062 1,1 0 0 0 1.4140625,0 L 12,13.414063 l 5.292969,5.292968 a 1,1 0 0 0 1.414062,0 1,1 0 0 0 0,-1.414062 L 13.414063,12 18.707031,6.7070312 a 1,1 0 0 0 0,-1.4140625 1,1 0 0 0 -1.414062,0 L 12,10.585938 6.7070312,5.2929687 A 1,1 0 0 0 6,5 Z"
     id="path1" />
</svg>
