<svg width="32" height="32" viewBox="0 0 32 32" fill="none" xmlns="http://www.w3.org/2000/svg">
<path d="M26.5961 7.38133L21.9507 2.73333C20.1867 0.970667 17.8427 0 15.3507 0H9.33073C5.65473 0 2.66406 2.99067 2.66406 6.66667V25.3333C2.66406 29.0093 5.65473 32 9.33073 32H22.6641C26.3401 32 29.3307 29.0093 29.3307 25.3333V13.98C29.3307 11.4853 28.3587 9.144 26.5961 7.38133ZM24.7107 9.268C25.1347 9.69067 25.4934 10.1613 25.7841 10.668H19.9961C19.2601 10.668 18.6627 10.0693 18.6627 9.33467V3.54533C19.1694 3.836 19.6401 4.19467 20.0641 4.61867L24.7094 9.26667L24.7107 9.268ZM26.6641 25.3347C26.6641 27.54 24.8694 29.3347 22.6641 29.3347H9.33073C7.1254 29.3347 5.33073 27.54 5.33073 25.3347V6.66667C5.33073 4.46133 7.1254 2.66667 9.33073 2.66667H15.3507C15.5681 2.66667 15.7841 2.67733 15.9974 2.69733V9.33333C15.9974 11.5387 17.7921 13.3333 19.9974 13.3333H26.6334C26.6534 13.5467 26.6641 13.7627 26.6641 13.98V25.3347ZM20.9401 21.4747C21.4614 21.9947 21.4614 22.8387 20.9401 23.36L18.7894 25.512C18.0201 26.2813 17.0081 26.6667 15.9974 26.6667C14.9867 26.6667 13.9747 26.2813 13.2054 25.512L11.0547 23.36C10.5334 22.8387 10.5334 21.9947 11.0547 21.4747C11.5761 20.9533 12.4187 20.9533 12.9401 21.4747L14.6641 23.1987V17.3347C14.6641 16.5987 15.2601 16.0013 15.9974 16.0013C16.7347 16.0013 17.3307 16.5987 17.3307 17.3347V23.1987L19.0547 21.4747C19.5761 20.9533 20.4187 20.9533 20.9401 21.4747Z" fill="#EA9D0F"/>
</svg>
