<svg width="18" height="18" viewBox="0 0 18 18" fill="none" xmlns="http://www.w3.org/2000/svg">
<g clip-path="url(#clip0_6_7339)">
<path d="M13.875 0.75H4.125C3.03135 0.751191 1.98283 1.18617 1.2095 1.9595C0.436171 2.73283 0.00119113 3.78135 0 4.875L0 13.125C0.00119113 14.2187 0.436171 15.2672 1.2095 16.0405C1.98283 16.8138 3.03135 17.2488 4.125 17.25H13.875C14.9687 17.2488 16.0172 16.8138 16.7905 16.0405C17.5638 15.2672 17.9988 14.2187 18 13.125V4.875C17.9988 3.78135 17.5638 2.73283 16.7905 1.9595C16.0172 1.18617 14.9687 0.751191 13.875 0.75ZM13.875 3C14.3298 3.00151 14.7683 3.16991 15.1073 3.47325L10.2323 8.34825C9.90114 8.6645 9.46088 8.84097 9.003 8.84097C8.54512 8.84097 8.10486 8.6645 7.77375 8.34825L2.89875 3.47325C3.23614 3.17128 3.67222 3.00298 4.125 3H13.875ZM13.875 15H4.125C3.62772 15 3.15081 14.8025 2.79917 14.4508C2.44754 14.0992 2.25 13.6223 2.25 13.125V6.01275L6.17925 9.942C6.54957 10.3125 6.98925 10.6064 7.47318 10.8069C7.95711 11.0074 8.4758 11.1106 8.99963 11.1106C9.52345 11.1106 10.0421 11.0074 10.5261 10.8069C11.01 10.6064 11.4497 10.3125 11.82 9.942L15.75 6.01275V13.125C15.75 13.6223 15.5525 14.0992 15.2008 14.4508C14.8492 14.8025 14.3723 15 13.875 15Z" fill="#EA9D0F"/>
</g>
<defs>
<clipPath id="clip0_6_7339">
<rect width="18" height="18" fill="white"/>
</clipPath>
</defs>
</svg>
