<svg width="24" height="24" viewBox="0 0 24 24" fill="none" xmlns="http://www.w3.org/2000/svg">
<path d="M22.405 4.04367C21.3748 3.01344 20.0051 2.44612 18.5482 2.44612C17.0913 2.44612 15.7216 3.01344 14.6914 4.04367L6.09334 12.6417C4.81738 13.9176 4.81738 15.9938 6.09342 17.2699C7.36945 18.5458 9.44568 18.5458 10.7216 17.2697L16.3833 11.6081C16.8093 11.1821 16.8093 10.4914 16.3833 10.0654C15.9573 9.63935 15.2666 9.63935 14.8406 10.0654L9.17892 15.727C8.75363 16.1525 8.0615 16.1524 7.63613 15.7271C7.21076 15.3017 7.21076 14.6096 7.63606 14.1843L16.2341 5.58646C16.8523 4.96837 17.6741 4.62794 18.5482 4.62794C19.4224 4.62794 20.2442 4.96837 20.8623 5.58646C22.1382 6.86249 22.1383 8.93865 20.8624 10.2147L11.493 19.5839C9.36626 21.7105 5.90593 21.7104 3.77938 19.5839C2.74915 18.5537 2.18175 17.184 2.18175 15.7271C2.18175 14.2702 2.74915 12.9004 3.77938 11.8702L13.1485 2.50088C13.5746 2.07486 13.5746 1.38419 13.1485 0.958162C12.7226 0.532211 12.0319 0.532139 11.6058 0.958162L2.23666 10.3275C0.794303 11.7698 0 13.6874 0 15.7271C0 17.7668 0.794303 19.6844 2.23666 21.1266C3.72549 22.6155 5.68048 23.3598 7.63613 23.3596C9.59135 23.3594 11.5472 22.6151 13.0358 21.1266L22.4051 11.7573C24.5317 9.63063 24.5316 6.17037 22.405 4.04367Z" fill="white"/>
</svg>
