<svg width="18" height="18" viewBox="0 0 18 18" fill="none" xmlns="http://www.w3.org/2000/svg">
<g clip-path="url(#clip0_6_7343)">
<path d="M13.1256 18C7.0139 18.1718 -3.8056 7.34025 1.39715 1.4535C1.4159 1.4355 2.21615 0.738 2.21615 0.738C2.7184 0.273708 3.37879 0.0184042 4.06274 0.0241177C4.74669 0.0298313 5.40273 0.296132 5.89715 0.76875L7.51115 2.50725C7.98657 3.00411 8.2495 3.66678 8.24403 4.35444C8.23857 5.04209 7.96516 5.70051 7.4819 6.18975L7.1909 6.48525C8.05755 8.40442 9.59086 9.94412 11.5064 10.8188L11.8146 10.5188C12.3146 10.0426 12.9786 9.77697 13.669 9.77697C14.3595 9.77697 15.0234 10.0426 15.5234 10.5188L17.2011 12.075C17.6981 12.5605 17.9834 13.2225 17.9949 13.9171C18.0064 14.6117 17.7432 15.2828 17.2626 15.7845C17.2626 15.7845 16.5651 16.584 16.5471 16.6028C16.0977 17.0505 15.5638 17.4046 14.9765 17.6445C14.3892 17.8843 13.7601 18.0052 13.1256 18ZM2.96315 3.075C-0.681101 7.5885 10.9836 18.5798 14.9294 15.0375C14.9294 15.0375 15.6224 14.2433 15.6411 14.2253C15.7114 14.1549 15.7509 14.0596 15.7509 13.9601C15.7509 13.8607 15.7114 13.7653 15.6411 13.695L13.9626 12.1395C13.7376 11.952 13.6109 11.9498 13.4024 12.1095L12.5504 12.948C12.3967 13.0992 12.2028 13.203 11.9918 13.2472C11.7808 13.2913 11.5615 13.2739 11.3601 13.197C9.86362 12.6401 8.50431 11.768 7.37437 10.6397C6.24443 9.51146 5.37027 8.15345 4.81115 6.65775C4.72977 6.45472 4.70934 6.23237 4.75237 6.01791C4.79539 5.80345 4.9 5.60618 5.0534 5.45025L5.8844 4.60575C5.92224 4.57213 5.95265 4.53099 5.97369 4.48495C5.99472 4.43891 6.00591 4.38898 6.00655 4.33837C6.00718 4.28775 5.99725 4.23756 5.97738 4.19101C5.95751 4.14445 5.92814 4.10256 5.89115 4.068L4.27565 2.3295C4.20417 2.26976 4.11256 2.2396 4.01957 2.24517C3.92658 2.25075 3.83923 2.29165 3.7754 2.3595C3.7574 2.37825 2.96315 3.075 2.96315 3.075ZM18.0006 7.125C17.9985 5.236 17.2471 3.425 15.9114 2.08928C14.5756 0.753552 12.7646 0.00218347 10.8756 0C10.5773 0 10.2911 0.118526 10.0802 0.329505C9.86917 0.540483 9.75065 0.826631 9.75065 1.125C9.75065 1.42337 9.86917 1.70952 10.0802 1.9205C10.2911 2.13147 10.5773 2.25 10.8756 2.25C12.1681 2.25159 13.4071 2.76571 14.321 3.67961C15.2349 4.5935 15.7491 5.83256 15.7506 7.125C15.7506 7.42337 15.8692 7.70952 16.0802 7.9205C16.2911 8.13147 16.5773 8.25 16.8756 8.25C17.174 8.25 17.4602 8.13147 17.6711 7.9205C17.8821 7.70952 18.0006 7.42337 18.0006 7.125ZM14.2506 7.125C14.2497 6.2302 13.8938 5.37233 13.261 4.73961C12.6283 4.10689 11.7704 3.75099 10.8756 3.75C10.5773 3.75 10.2911 3.86853 10.0802 4.0795C9.86917 4.29048 9.75065 4.57663 9.75065 4.875C9.75065 5.17337 9.86917 5.45952 10.0802 5.6705C10.2911 5.88147 10.5773 6 10.8756 6C11.174 6 11.4602 6.11853 11.6711 6.32951C11.8821 6.54048 12.0006 6.82663 12.0006 7.125C12.0006 7.42337 12.1192 7.70952 12.3302 7.9205C12.5411 8.13147 12.8273 8.25 13.1256 8.25C13.424 8.25 13.7102 8.13147 13.9211 7.9205C14.1321 7.70952 14.2506 7.42337 14.2506 7.125Z" fill="#EA9D0F"/>
</g>
<defs>
<clipPath id="clip0_6_7343">
<rect width="18" height="18" fill="white"/>
</clipPath>
</defs>
</svg>
