<svg width="16" height="16" viewBox="0 0 16 16" fill="none" xmlns="http://www.w3.org/2000/svg">
<g clip-path="url(#clip0_6_7363)">
<path d="M15.6444 13.9038L12.3463 10.6059C13.1411 9.45854 13.5387 8.17947 13.5387 6.76936C13.5387 5.85271 13.3607 4.97603 13.0048 4.13953C12.6491 3.30289 12.1683 2.58177 11.5626 1.976C10.9568 1.37023 10.2358 0.889409 9.3993 0.533699C8.56256 0.177889 7.68595 0 6.76929 0C5.85271 0 4.97603 0.177889 4.13953 0.533699C3.30289 0.889409 2.58177 1.37023 1.976 1.976C1.37017 2.58177 0.889409 3.30303 0.533666 4.13953C0.177889 4.97613 0 5.85271 0 6.76936C0 7.68595 0.177889 8.56233 0.533666 9.39906C0.889375 10.2356 1.37017 10.9566 1.976 11.5624C2.58177 12.1683 3.30303 12.6489 4.13953 13.0049C4.97613 13.3606 5.85271 13.5385 6.76929 13.5385C8.17971 13.5385 9.45857 13.1408 10.606 12.3461L13.9041 15.6345C14.1348 15.878 14.4229 15.9998 14.7694 15.9998C15.1027 15.9998 15.3913 15.878 15.6347 15.6345C15.8782 15.391 16 15.1025 16 14.7692C16.0001 14.4296 15.8816 14.141 15.6444 13.9038ZM9.8126 9.81233C8.96966 10.6554 7.95531 11.0769 6.76929 11.0769C5.58348 11.0769 4.56913 10.6553 3.72613 9.81233C2.88313 8.96939 2.46164 7.95517 2.46164 6.76916C2.46164 5.58335 2.88323 4.56883 3.72613 3.72599C4.56896 2.88296 5.58348 2.46151 6.76929 2.46151C7.95517 2.46151 8.96953 2.88313 9.8126 3.72599C10.6557 4.56883 11.0771 5.58335 11.0771 6.76916C11.0771 7.95517 10.6555 8.96939 9.8126 9.81233Z" fill="#141414"/>
</g>
<defs>
<clipPath id="clip0_6_7363">
<rect width="16" height="16" fill="white"/>
</clipPath>
</defs>
</svg>
