<svg width="25" height="25" viewBox="0 0 25 25" fill="none" xmlns="http://www.w3.org/2000/svg">
<path d="M20.7902 4.20893C18.8347 2.2313 16.2366 1.01796 13.4649 0.787987C10.6933 0.558012 7.93072 1.32655 5.67603 2.95486C3.42134 4.58316 1.8231 6.96392 1.16987 9.6673C0.516639 12.3707 0.85146 15.2185 2.11388 17.6967L0.877039 23.7016C0.863796 23.7615 0.863283 23.8236 0.875533 23.8838C0.887783 23.944 0.912524 24.0009 0.948157 24.051C0.999187 24.1267 1.07213 24.1851 1.15723 24.2182C1.24233 24.2514 1.33552 24.2578 1.42434 24.2365L7.29934 22.842C9.77071 24.0713 12.5981 24.3838 15.2783 23.7238C17.9585 23.0639 20.3175 21.4743 21.9355 19.238C23.5535 17.0017 24.3255 14.2639 24.1141 11.5118C23.9027 8.75963 22.7215 6.17182 20.7809 4.20893H20.7902ZM18.9535 18.8562C17.6011 20.2063 15.8595 21.0985 13.9738 21.4074C12.088 21.7163 10.1528 21.4265 8.44033 20.5785L7.61783 20.1704L4.00934 21.0238V20.9774L4.77 17.338L4.36803 16.5464C3.49241 14.8293 3.18324 12.8789 3.48489 10.9752C3.78653 9.07141 4.68349 7.31214 6.04704 5.94979C7.75916 4.23945 10.0802 3.27874 12.5003 3.27874C14.9203 3.27874 17.2414 4.23945 18.9535 5.94979L18.9937 6.00545C20.6835 7.72122 21.6269 10.0353 21.6182 12.4435C21.6095 14.8517 20.6495 17.1589 18.9473 18.8624L18.9535 18.8562Z" fill="white"/>
<path d="M18.6314 16.2091C18.1893 16.9048 17.4874 17.7551 16.6123 17.9685C15.0662 18.3396 12.7131 17.9685 9.76636 15.2444L9.72926 15.2103C7.16591 12.817 6.48564 10.8226 6.63715 9.24258C6.72683 8.34277 7.47511 7.53264 8.1059 7.0008C8.20619 6.91624 8.32488 6.85631 8.45246 6.8258C8.58005 6.79529 8.713 6.79505 8.8407 6.82509C8.96839 6.85514 9.08729 6.91464 9.18789 6.99884C9.28848 7.08304 9.36799 7.1896 9.42005 7.31001L10.3693 9.45593C10.4313 9.59407 10.4545 9.74645 10.4366 9.89678C10.4186 10.0471 10.3601 10.1897 10.2673 10.3094L9.78492 10.9278C9.68466 11.0561 9.62493 11.2115 9.61337 11.374C9.6018 11.5364 9.63892 11.6987 9.71998 11.8399C10.1782 12.5153 10.7264 13.1249 11.3495 13.6519C12.0199 14.2971 12.7802 14.8418 13.6068 15.2691C13.7576 15.3299 13.9231 15.3444 14.0823 15.3108C14.2414 15.2772 14.387 15.197 14.5004 15.0805L15.0539 14.5177C15.1592 14.4045 15.2938 14.3226 15.4428 14.2811C15.5918 14.2396 15.7493 14.2402 15.898 14.2827L18.1552 14.929C18.2832 14.9654 18.4007 15.0313 18.4984 15.1216C18.596 15.2118 18.6711 15.3238 18.7174 15.4485C18.7638 15.5731 18.7802 15.7069 18.7652 15.839C18.7503 15.9712 18.7045 16.098 18.6314 16.2091Z" fill="white"/>
</svg>
