<svg width="264" height="154" viewBox="0 0 264 154" fill="none" xmlns="http://www.w3.org/2000/svg">
<rect width="263.5" height="154" transform="translate(0.5)" fill="#F3F3F5"/>
<g clip-path="url(#clip0_6_6638)">
<path d="M85.7958 70.9699V74.014H87.0252C87.443 74.014 87.7965 73.9502 88.0858 73.8223C88.3761 73.6943 88.5951 73.5158 88.7448 73.2867C88.894 73.0581 88.9683 72.7926 88.9683 72.4917C88.9683 71.4771 88.321 70.9699 87.0252 70.9699H85.7958ZM85.7958 66.5517V69.2579H86.8695C87.5173 69.2579 87.9614 69.1123 88.2021 68.8215C88.4423 68.5306 88.5627 68.2252 88.5627 67.9066C88.5627 67.5652 88.4403 67.2536 88.196 66.9729C87.9523 66.6923 87.4784 66.5517 86.7749 66.5517H85.7958ZM83.5907 64.8438H87.1658C87.6594 64.8438 88.1713 64.9019 88.7028 65.0182C89.2343 65.1346 89.7143 65.393 90.1437 65.7925C90.572 66.1926 90.7865 66.7717 90.7865 67.5308C90.7865 68.2849 90.6069 68.8548 90.2478 69.2407C89.8883 69.6271 89.4771 69.8916 89.0138 70.0358V70.0666C89.6748 70.1622 90.2205 70.4409 90.6519 70.9011C91.0833 71.3618 91.2993 71.949 91.2993 72.6626C91.2993 73.138 91.1855 73.6058 90.9594 74.065C90.7329 74.5243 90.302 74.9162 89.6667 75.2394C89.0315 75.5636 88.151 75.7254 87.0252 75.7254H83.5907V64.8438Z" fill="#0088BB"/>
<path d="M98.2646 66.2744C97.7968 66.2744 97.3386 66.3822 96.8905 66.5976C96.4429 66.812 96.0606 67.2176 95.7429 67.8139C95.4253 68.4097 95.266 69.233 95.266 70.283C95.266 71.3354 95.4253 72.1598 95.7429 72.7556C96.0606 73.3513 96.4429 73.757 96.8905 73.9724C97.3386 74.1873 97.7968 74.2946 98.2646 74.2946C98.5964 74.2946 98.9307 74.2394 99.2685 74.1292C99.6064 74.0194 99.928 73.8202 100.233 73.5319C100.537 73.2431 100.786 72.8309 100.978 72.2943C101.171 71.7582 101.267 71.0876 101.267 70.283C101.267 69.23 101.108 68.4067 100.791 67.8119C100.473 67.2171 100.089 66.812 99.6387 66.5976C99.1881 66.3822 98.7304 66.2744 98.2646 66.2744ZM98.2646 64.7188C99.2867 64.7188 100.202 64.9337 101.009 65.3636C101.816 65.794 102.449 66.4292 102.909 67.2692C103.368 68.1093 103.598 69.1137 103.598 70.283C103.598 71.4518 103.368 72.4572 102.909 73.2982C102.449 74.1398 101.816 74.7755 101.009 75.2054C100.202 75.6358 99.2867 75.8513 98.2646 75.8513C97.24 75.8513 96.3246 75.6358 95.5184 75.2054C94.7127 74.7755 94.0806 74.1403 93.6208 73.3003C93.1616 72.4597 92.932 71.4543 92.932 70.283C92.932 69.1112 93.1616 68.1057 93.6208 67.2672C94.0806 66.4287 94.7127 65.794 95.5184 65.3636C96.3246 64.9337 97.24 64.7188 98.2646 64.7188Z" fill="#0088BB"/>
<path d="M113.328 73.5319L113.469 75.3839C112.535 75.6955 111.596 75.8513 110.653 75.8513C109.886 75.8513 109.159 75.7339 108.47 75.5003C107.782 75.2661 107.177 74.9151 106.654 74.4483C106.132 73.982 105.724 73.4024 105.432 72.7101C105.14 72.0182 104.994 71.2302 104.994 70.3472C104.994 69.497 105.133 68.7243 105.411 68.0284C105.69 67.3325 106.092 66.7372 106.62 66.2426C107.147 65.7479 107.787 65.3702 108.539 65.1097C109.29 64.8492 110.13 64.7188 111.059 64.7188C111.884 64.7188 112.687 64.8427 113.469 65.091L113.374 66.9582C112.701 66.6876 111.981 66.5516 111.214 66.5516C110.471 66.5516 109.803 66.6987 109.214 66.9921C108.625 67.2854 108.163 67.7158 107.829 68.2827C107.495 68.8492 107.328 69.5274 107.328 70.3174C107.328 71.1898 107.509 71.9034 107.87 72.4577C108.233 73.012 108.695 73.41 109.26 73.6513C109.824 73.893 110.424 74.0139 111.059 74.0139C111.868 74.0139 112.625 73.8536 113.328 73.5319Z" fill="#0088BB"/>
<path d="M114.32 64.8438H122.811V66.7722H119.668V75.7259H117.463V66.7722H114.32V64.8438Z" fill="#0088BB"/>
<path d="M129.073 66.2744C128.605 66.2744 128.147 66.3822 127.699 66.5976C127.251 66.812 126.869 67.2176 126.552 67.8139C126.234 68.4097 126.075 69.233 126.075 70.283C126.075 71.3354 126.234 72.1598 126.552 72.7556C126.869 73.3513 127.251 73.757 127.699 73.9724C128.147 74.1873 128.605 74.2946 129.073 74.2946C129.405 74.2946 129.739 74.2394 130.077 74.1292C130.415 74.0194 130.737 73.8202 131.042 73.5319C131.346 73.2431 131.595 72.8309 131.787 72.2943C131.979 71.7582 132.076 71.0876 132.076 70.283C132.076 69.23 131.917 68.4067 131.599 67.8119C131.282 67.2171 130.897 66.812 130.447 66.5976C129.997 66.3822 129.539 66.2744 129.073 66.2744ZM129.073 64.7188C130.095 64.7188 131.01 64.9337 131.818 65.3636C132.625 65.794 133.258 66.4292 133.717 67.2692C134.177 68.1093 134.406 69.1137 134.406 70.283C134.406 71.4518 134.177 72.4572 133.717 73.2982C133.258 74.1398 132.625 74.7755 131.818 75.2054C131.01 75.6358 130.095 75.8513 129.073 75.8513C128.049 75.8513 127.133 75.6358 126.327 75.2054C125.521 74.7755 124.889 74.1403 124.429 73.3003C123.97 72.4597 123.741 71.4543 123.741 70.283C123.741 69.1112 123.97 68.1057 124.429 67.2672C124.889 66.4287 125.521 65.794 126.327 65.3636C127.133 64.9337 128.049 64.7188 129.073 64.7188Z" fill="#0088BB"/>
<path d="M135.882 64.8438H138.087V68.56C138.087 69.0961 138.214 69.5174 138.469 69.8238C138.723 70.1298 139.301 70.2831 140.201 70.2831C140.832 70.2831 141.511 70.1956 142.24 70.0206V64.8438H144.448V75.7259H142.24V71.8539C141.506 71.998 140.826 72.0704 140.201 72.0704C139.278 72.0704 138.522 71.9753 137.934 71.7841C137.345 71.5929 136.904 71.3406 136.611 71.027C136.317 70.7129 136.123 70.3776 136.026 70.0206C135.93 69.664 135.882 69.2761 135.882 68.8558V64.8438Z" fill="#0088BB"/>
<path d="M146.625 64.8438H148.83V69.2276H153.248V64.8438H155.453V75.7259H153.248V71.0154H148.83V75.7259H146.625V64.8438Z" fill="#0088BB"/>
<path d="M166.927 64.8438H169.136V75.7259H166.927V64.8438ZM159.837 70.6285V74.0139H161.298C161.862 74.0139 162.307 73.8557 162.632 73.538C162.957 73.2204 163.12 72.8148 163.12 72.3212C163.12 71.8938 162.978 71.5044 162.694 71.154C162.411 70.8035 161.889 70.6285 161.127 70.6285H159.837ZM159.837 64.8438V68.9165H161.363C162.322 68.9165 163.101 69.0778 163.703 69.4005C164.303 69.7231 164.733 70.1328 164.989 70.6305C165.246 71.1276 165.374 71.6546 165.374 72.2115C165.374 72.7096 165.295 73.1688 165.138 73.5886C164.979 74.0088 164.737 74.3785 164.41 74.6972C164.084 75.0158 163.657 75.2671 163.129 75.4507C162.602 75.6338 161.991 75.7259 161.298 75.7259H157.632V64.8438H159.837Z" fill="#0088BB"/>
<path d="M177.652 61.6543L178.787 62.2612C178.296 63.474 177.337 64.0799 175.91 64.0799C174.485 64.0799 173.527 63.474 173.033 62.2612L174.167 61.6543C174.438 62.3274 175.019 62.6638 175.91 62.6638C176.8 62.6638 177.381 62.3274 177.652 61.6543ZM171.31 64.8425H173.515V70.4371L173.469 73.0827H173.515L174.293 71.4961L178.104 64.8425H180.745V75.7242H178.536V70.1109L178.586 67.484H178.536L177.792 69.1313L173.951 75.7242H171.31V64.8425Z" fill="#0088BB"/>
<path d="M188.382 64.8438H197.104V75.7259H194.895V66.6316H190.587V75.7259H188.382V64.8438Z" fill="#0088BB"/>
<path d="M204.222 66.2744C203.754 66.2744 203.296 66.3822 202.848 66.5976C202.4 66.812 202.018 67.2176 201.7 67.8139C201.383 68.4097 201.223 69.233 201.223 70.283C201.223 71.3354 201.383 72.1598 201.7 72.7556C202.018 73.3513 202.4 73.757 202.848 73.9724C203.296 74.1873 203.754 74.2946 204.222 74.2946C204.554 74.2946 204.888 74.2394 205.226 74.1292C205.563 74.0194 205.885 73.8202 206.19 73.5319C206.495 73.2431 206.743 72.8309 206.936 72.2943C207.128 71.7582 207.224 71.0876 207.224 70.283C207.224 69.23 207.066 68.4067 206.748 67.8119C206.43 67.2171 206.046 66.812 205.596 66.5976C205.145 66.3822 204.688 66.2744 204.222 66.2744ZM204.222 64.7188C205.244 64.7188 206.159 64.9337 206.966 65.3636C207.773 65.794 208.406 66.4292 208.866 67.2692C209.325 68.1093 209.555 69.1137 209.555 70.283C209.555 71.4518 209.325 72.4572 208.866 73.2982C208.406 74.1398 207.773 74.7755 206.966 75.2054C206.159 75.6358 205.244 75.8513 204.222 75.8513C203.197 75.8513 202.282 75.6358 201.476 75.2054C200.67 74.7755 200.038 74.1403 199.578 73.3003C199.119 72.4597 198.889 71.4543 198.889 70.283C198.889 69.1112 199.119 68.1057 199.578 67.2672C200.038 66.4287 200.67 65.794 201.476 65.3636C202.282 64.9337 203.197 64.7188 204.222 64.7188Z" fill="#0088BB"/>
<path d="M213.547 69.926H214.56C215.145 69.926 215.599 69.7591 215.922 69.4253C216.247 69.0915 216.408 68.6773 216.408 68.1842C216.408 67.7209 216.26 67.333 215.962 67.021C215.665 66.7084 215.198 66.5517 214.56 66.5517H213.547V69.926ZM211.342 64.8438H214.56C216.159 64.8438 217.255 65.2079 217.849 65.9352C218.442 66.6629 218.739 67.4337 218.739 68.2489C218.739 68.8255 218.599 69.3732 218.32 69.8921C218.04 70.411 217.614 70.8313 217.042 71.154C216.471 71.4766 215.777 71.638 214.962 71.638H213.547V75.7259H211.342V64.8438Z" fill="#0088BB"/>
<path d="M219.595 64.8438H228.086V66.7722H224.943V75.7259H222.738V66.7722H219.595V64.8438Z" fill="#0088BB"/>
<path d="M88.6956 81.3323L87.6305 84.0249H89.7531L88.6956 81.3323ZM90.3832 85.6904L89.9407 84.5802H87.4504L87.0074 85.6904H86.2953L88.3056 80.6875H89.0779L91.0958 85.6904H90.3832Z" fill="#0088BB"/>
<path d="M96.8727 85.6909L94.9751 83.4408L94.4724 84.0108V85.6909H93.8499V80.6875H94.4724V83.2759L96.6856 80.6875H97.4654L95.3802 83.0655L97.6455 85.6909H96.8727Z" fill="#0088BB"/>
<path d="M104.463 85.6909H100.458V80.6875H101.08V85.1355H104.005V80.6875H104.628V85.1355H105.085V86.6133H104.463V85.6909Z" fill="#0088BB"/>
<path d="M107.983 85.6909V80.6875H108.605V84.5959L111.486 80.6875H112.124V85.6909H111.501V81.7L108.583 85.6909H107.983Z" fill="#0088BB"/>
<path d="M119.512 83.1934C119.512 82.0231 118.791 81.1603 117.674 81.1603C116.549 81.1603 115.836 82.0231 115.836 83.1934C115.836 84.3561 116.549 85.226 117.674 85.226C118.791 85.226 119.512 84.3561 119.512 83.1934ZM115.191 83.1934C115.191 81.7156 116.188 80.6055 117.674 80.6055C119.152 80.6055 120.156 81.7156 120.156 83.1934C120.156 84.6712 119.152 85.7808 117.674 85.7808C116.188 85.7808 115.191 84.6712 115.191 83.1934Z" fill="#0088BB"/>
<path d="M126.781 85.6909V83.3958H123.856V85.6909H123.234V80.6875H123.856V82.8405H126.781V80.6875H127.404V85.6909H126.781Z" fill="#0088BB"/>
<path d="M130.676 85.6909V80.6875H133.954V81.2428H131.298V82.8556H133.901V83.4104H131.298V85.1355H133.954V85.6909H130.676Z" fill="#0088BB"/>
<path d="M139.976 82.1951C139.976 81.6327 139.571 81.2423 138.978 81.2423H137.666V83.1475H138.978C139.571 83.1475 139.976 82.7575 139.976 82.1951ZM137.043 85.6904V80.6875H139.054C140.059 80.6875 140.621 81.3773 140.621 82.1951C140.621 83.0124 140.044 83.7023 139.054 83.7023H137.666V85.6904H137.043Z" fill="#0088BB"/>
<path d="M147.096 85.6909V83.3958H144.171V85.6909H143.549V80.6875H144.171V82.8405H147.096V80.6875H147.719V85.6909H147.096Z" fill="#0088BB"/>
<path d="M155.108 83.1934C155.108 82.0231 154.388 81.1603 153.27 81.1603C152.145 81.1603 151.432 82.0231 151.432 83.1934C151.432 84.3561 152.145 85.226 153.27 85.226C154.388 85.226 155.108 84.3561 155.108 83.1934ZM150.788 83.1934C150.788 81.7156 151.785 80.6055 153.27 80.6055C154.748 80.6055 155.753 81.7156 155.753 83.1934C155.753 84.6712 154.748 85.7808 153.27 85.7808C151.785 85.7808 150.788 84.6712 150.788 83.1934Z" fill="#0088BB"/>
<path d="M158.83 85.6909V80.6875H162.108V81.2428H159.452V82.8556H162.055V83.4104H159.452V85.1355H162.108V85.6909H158.83Z" fill="#0088BB"/>
<path d="M173.352 83.1934C173.352 82.0231 172.631 81.1603 171.514 81.1603C170.389 81.1603 169.676 82.0231 169.676 83.1934C169.676 84.3561 170.389 85.226 171.514 85.226C172.631 85.226 173.352 84.3561 173.352 83.1934ZM169.031 83.1934C169.031 81.7156 170.028 80.6055 171.514 80.6055C172.992 80.6055 173.996 81.7156 173.996 83.1934C173.996 84.6712 172.992 85.7808 171.514 85.7808C170.028 85.7808 169.031 84.6712 169.031 83.1934Z" fill="#0088BB"/>
<path d="M177.696 83.2304V85.1355H179.009C179.601 85.1355 180.006 84.7451 180.006 84.1827C180.006 83.6203 179.601 83.2304 179.009 83.2304H177.696ZM180.321 80.6875V81.2423H177.696V82.6751H179.084C180.074 82.6751 180.651 83.3654 180.651 84.1827C180.651 85.0005 180.088 85.6904 179.084 85.6904H177.074V80.6875H180.321Z" fill="#0088BB"/>
<path d="M189.638 80.6875V85.1355H190.089V86.6133H189.466V85.6909H183.615V80.6875H184.238V85.1355H186.316V80.6875H186.938V85.1355H189.016V80.6875H189.638Z" fill="#0088BB"/>
<path d="M192.991 85.6909V80.6875H196.269V81.2428H193.614V82.8556H196.217V83.4104H193.614V85.1355H196.269V85.6909H192.991Z" fill="#0088BB"/>
<path d="M199.158 83.1934C199.158 81.6554 200.291 80.6055 201.731 80.6055C202.616 80.6055 203.231 81.0333 203.628 81.5957L203.104 81.888C202.818 81.4678 202.301 81.1603 201.731 81.1603C200.635 81.1603 199.803 82.0008 199.803 83.1934C199.803 84.3783 200.635 85.226 201.731 85.226C202.301 85.226 202.818 84.9261 203.104 84.4982L203.636 84.7905C203.216 85.361 202.616 85.7808 201.731 85.7808C200.291 85.7808 199.158 84.7308 199.158 83.1934Z" fill="#0088BB"/>
<path d="M207.769 85.6909V81.2428H206.186V80.6875H209.982V81.2428H208.391V85.6909H207.769Z" fill="#0088BB"/>
<path d="M215.991 84.2732C215.991 83.8155 215.676 83.4104 215.06 83.4104H213.531V85.1355H215.06C215.646 85.1355 215.991 84.8058 215.991 84.2732ZM215.893 82.0525C215.893 81.6029 215.593 81.2428 215.031 81.2428H213.531V82.8551H215.031C215.593 82.8551 215.893 82.5107 215.893 82.0525ZM212.908 85.6909V80.6875H215.136C216.006 80.6875 216.538 81.2125 216.538 81.963C216.538 82.5932 216.118 83.0129 215.661 83.11C216.193 83.193 216.636 83.7402 216.636 84.3405C216.636 85.1431 216.103 85.6909 215.188 85.6909H212.908Z" fill="#0088BB"/>
<path d="M223.846 83.1934C223.846 82.0231 223.126 81.1603 222.008 81.1603C220.883 81.1603 220.17 82.0231 220.17 83.1934C220.17 84.3561 220.883 85.226 222.008 85.226C223.126 85.226 223.846 84.3561 223.846 83.1934ZM219.525 83.1934C219.525 81.7156 220.523 80.6055 222.008 80.6055C223.486 80.6055 224.491 81.7156 224.491 83.1934C224.491 84.6712 223.486 85.7808 222.008 85.7808C220.523 85.7808 219.525 84.6712 219.525 83.1934Z" fill="#0088BB"/>
<path d="M81.9023 78.252H230.564" stroke="#0088BB" stroke-miterlimit="10" stroke-linecap="round"/>
<path fill-rule="evenodd" clip-rule="evenodd" d="M54.8466 98.8598C42.8199 98.8598 33.0691 89.1085 33.0691 77.0814C33.0691 65.1634 42.8199 55.4121 54.8466 55.4121C66.764 55.4121 76.5158 65.1634 76.5158 77.0814C76.5158 89.1085 66.764 98.8598 54.8466 98.8598ZM55.0625 92.359V92.2507L41.3032 62.9963C37.6193 66.4632 35.2357 71.5566 35.2357 77.0814C35.2357 87.9165 44.0109 96.6922 54.8466 96.6922C65.573 96.6922 74.3487 87.9165 74.3487 77.0814C74.3487 75.7816 74.241 74.5896 74.0235 73.2893C74.0235 73.0733 74.1322 72.7476 74.241 72.5312C74.5656 74.0484 74.7826 75.5646 74.7826 77.0814C74.7826 88.1329 65.7894 97.1261 54.8466 97.1261C43.7945 97.1261 34.8023 88.1329 34.8023 77.0814C34.8023 66.139 43.7945 57.1463 54.8466 57.1463C59.8302 57.1463 64.3809 58.9877 67.9565 62.0212C67.6308 62.0212 67.4149 62.0212 67.0892 61.9135C63.731 59.2042 59.505 57.5797 54.8466 57.5797C49.7537 57.5797 45.0948 59.5299 41.6273 62.6716L55.0625 91.2757V63.6467H66.764C70.1232 63.8637 72.8324 66.6807 72.8324 70.1481C72.8324 73.7232 69.9067 76.6484 66.3311 76.6484H56.3633V76.2155H66.3311C69.6897 76.2155 72.398 73.5067 72.398 70.1481C72.398 66.7894 69.6897 64.0796 66.3311 64.0796H55.4965V92.359H56.3633V78.3827H66.3311C69.2573 78.3827 71.8574 76.8654 73.2659 74.5896C73.3736 75.4574 73.4818 76.2155 73.4818 77.0814C73.4818 87.4836 65.14 95.8259 54.8466 95.8259C44.4449 95.8259 36.1021 87.4836 36.1021 77.0814C36.1021 72.5312 37.7275 68.4139 40.4363 65.1634L53.1129 92.359H55.0625ZM42.7112 62.8886L53.3303 85.4247V61.9135H65.6807C62.539 59.7459 58.8556 58.4461 54.8466 58.4461C50.1876 58.4461 45.9616 60.0721 42.7112 62.8886ZM66.3311 75.3487H56.3633V64.9475H66.3311C69.2573 64.9475 71.5317 67.3311 71.5317 70.1481C71.5317 73.0733 69.2573 75.3487 66.3311 75.3487Z" fill="#0088BB"/>
</g>
<defs>
<clipPath id="clip0_6_6638">
<rect width="198.253" height="44" fill="white" transform="translate(32.8735 55)"/>
</clipPath>
</defs>
</svg>
