<svg width="152" height="56" viewBox="0 0 152 56" fill="none" xmlns="http://www.w3.org/2000/svg">
<path d="M12.44 38.9873C12.4708 38.8599 12.505 38.7333 12.5402 38.6077C12.9084 37.3177 13.5174 36.1577 14.3082 35.1647C15.1237 34.1366 16.1308 33.2877 17.2626 32.6559C19.3786 31.4758 21.9296 31.0619 24.4683 31.6814C26.9376 32.2842 29.413 32.2763 31.7364 31.7499C32.9183 31.4854 34.0625 31.0847 35.1442 30.5627C36.1407 30.0847 37.0863 29.503 37.9615 28.8281C38.8622 28.1365 39.69 27.3492 40.4273 26.473C41.241 25.5108 41.9457 24.4431 42.5178 23.2849C43.0275 22.2542 43.4326 21.1531 43.7173 19.9905C43.8078 19.6197 43.8842 19.2489 43.9484 18.878C44.321 16.6952 44.227 14.5273 43.7313 12.4834C43.69 12.3129 43.6461 12.1433 43.5995 11.9737C43.553 11.805 43.5029 11.6371 43.4501 11.471C43.2849 10.9447 43.0934 10.4297 42.8772 9.92621C42.8306 9.81548 42.7805 9.70476 42.7305 9.59492C42.4651 9.01582 42.1654 8.45255 41.8341 7.91124C41.7893 7.83567 41.7427 7.76361 41.697 7.68891C41.697 7.68891 41.6962 7.68774 41.6944 7.6854C41.603 7.53865 41.5081 7.39453 41.4106 7.25306L41.4079 7.24954C41.3113 7.1063 41.2102 6.96394 41.1092 6.82598C41.0573 6.75392 41.0046 6.68274 40.951 6.61156C40.8464 6.47448 40.741 6.33915 40.632 6.20558C40.5766 6.13528 40.5195 6.06674 40.4624 5.99732C40.1838 5.66515 39.893 5.34265 39.5872 5.03246C39.4641 4.9068 39.3367 4.78289 39.2084 4.65987C39.0239 4.48412 38.8341 4.31364 38.6408 4.1458C38.0318 3.6203 37.3798 3.13875 36.6882 2.70729C36.4887 2.58338 36.2866 2.46124 36.0801 2.34524C35.5783 2.06228 35.059 1.80481 34.5203 1.57634C34.3683 1.51131 34.2154 1.44804 34.059 1.38653C33.8665 1.31096 33.6723 1.23978 33.4755 1.17123C33.3208 1.11763 33.1644 1.06666 33.0071 1.01745C32.9184 0.989334 32.8287 0.961215 32.7408 0.93661C32.6969 0.92255 32.6512 0.910248 32.6073 0.898825C32.5669 0.885643 32.5264 0.874217 32.486 0.862793L32.5229 0.871584C32.5387 0.876856 32.5554 0.881247 32.5712 0.884762C42.4659 3.56846 48.9889 12.6767 48.7226 22.5802C48.6813 24.1118 48.4783 25.6602 48.0996 27.2077C47.7771 28.5293 47.3412 29.793 46.8034 30.9889C46.0486 32.6761 45.0934 34.2324 43.9756 35.6375C43.1435 36.6823 42.2225 37.6437 41.226 38.511C40.4237 39.2087 39.5749 39.8476 38.6838 40.4197C37.9228 40.9091 37.1311 41.3529 36.3138 41.7457C35.5836 42.0981 34.8331 42.41 34.0651 42.678C33.3445 42.9329 32.6082 43.1491 31.8595 43.3257C31.1125 43.5032 30.3524 43.6412 29.5844 43.7378C28.7294 43.8468 27.8638 43.9048 26.9903 43.9118C25.2249 43.9223 23.4279 43.7194 21.6335 43.2809C19.6053 42.7853 17.5596 43.9408 16.9128 45.8881C16.8786 45.9909 16.8478 46.0973 16.8215 46.2036C16.2995 48.3407 17.6088 50.4936 19.7442 51.0156C19.6941 51.0033 19.6449 50.991 19.5948 50.9778L19.5798 50.9743H19.5772C19.5728 50.9726 19.5684 50.9699 19.5658 50.969L19.4814 50.9488C19.4744 50.9453 19.4682 50.9444 19.4621 50.9427L19.4296 50.9348C19.3689 50.9181 19.3092 50.9005 19.2503 50.8829C15.6316 49.8012 13.049 46.8134 12.3469 43.2993C12.0674 41.9144 12.0815 40.4487 12.4383 38.9864L12.44 38.9873Z" fill="url(#paint0_linear_540_953)"/>
<path d="M16.82 46.2054C16.8463 46.0982 16.8762 45.9927 16.9113 45.8899C18.1135 46.4049 19.3754 46.8293 20.6873 47.15C21.9993 47.4708 23.3148 47.6755 24.6188 47.7722C25.2559 47.8196 25.8921 47.8416 26.5248 47.8372C27.0899 47.8337 27.6532 47.81 28.2129 47.7652C28.7683 47.723 29.3201 47.6597 29.8676 47.5797C30.4467 47.4919 31.0196 47.3847 31.5864 47.2581C32.2147 47.1166 32.836 46.9488 33.4485 46.7572C34.1594 46.5367 34.858 46.281 35.5417 45.9962C36.3782 45.6474 37.1928 45.2511 37.9828 44.8108C39.0145 44.2344 40.0048 43.5841 40.9416 42.8626C42.2852 41.8266 43.5242 40.6473 44.6279 39.338C46.5251 37.0892 48.0296 34.4583 49.0058 31.5294C49.215 30.9046 49.3995 30.2666 49.5586 29.6155C52.6149 17.1012 45.2009 4.48152 32.9169 0.980591C46.2694 4.74163 54.3381 18.4396 51.0199 32.0215C47.7027 45.6034 34.2279 54.0385 20.6451 51.2204C20.5283 51.1984 20.4105 51.1712 20.2945 51.1439C20.3675 51.1606 20.4413 51.1747 20.5151 51.1879C20.4132 51.1677 20.3112 51.1457 20.2084 51.1237L20.1741 51.1158C20.161 51.1123 20.146 51.1088 20.132 51.107L20.0283 51.0816C20.0221 51.0798 20.016 51.0789 20.0089 51.078L19.9246 51.0578C19.9202 51.057 19.9175 51.0561 19.9123 51.0561H19.9096C19.8543 51.0438 19.7998 51.0297 19.7444 51.0165C17.6091 50.4946 16.2997 48.3416 16.8217 46.2045L16.82 46.2054Z" fill="url(#paint1_linear_540_953)"/>
<path d="M9.5163 34.177C9.78783 33.0662 10.185 32.0179 10.6912 31.0477C11.2703 29.9309 11.9917 28.9159 12.8257 28.0161C13.6244 27.1531 14.5278 26.3983 15.5102 25.7682C16.5638 25.089 17.7089 24.552 18.9127 24.1777C21.2502 23.4475 23.8074 23.3244 26.3575 23.9475C28.9305 24.5758 31.5131 24.3192 33.7855 23.3684C34.9727 22.8745 36.0773 22.1882 37.0475 21.3411C37.9657 20.5406 38.7689 19.595 39.413 18.5282C40.0273 17.5141 40.4974 16.3902 40.7936 15.1793C40.8287 15.0352 40.8612 14.8911 40.8902 14.7452C41.2558 12.971 41.2057 11.2003 40.8023 9.5395C39.8208 5.4955 36.7522 2.1009 32.5193 0.8768C32.4595 0.857467 32.4006 0.841647 32.34 0.824951L32.3743 0.832862C32.4525 0.853952 32.5307 0.87592 32.608 0.897889C37.486 2.31267 41.0387 6.19586 42.2242 10.8409C42.6943 12.6793 42.7945 14.6371 42.4561 16.6082C42.4017 16.9324 42.3349 17.2593 42.2558 17.5836C41.9843 18.6943 41.5871 19.7426 41.0809 20.7128C40.5018 21.8288 39.7804 22.8446 38.9473 23.7427C38.1476 24.6048 37.2452 25.3605 36.2627 25.9906C35.2082 26.6716 34.0641 27.2085 32.8585 27.582C30.521 28.3122 27.9638 28.4352 25.4137 27.8122C22.8407 27.1839 20.259 27.4414 17.9874 28.3895C16.7994 28.8851 15.6974 29.5697 14.7255 30.4168C13.8055 31.2182 13.004 32.1646 12.3599 33.2314C11.7457 34.2455 11.2755 35.3694 10.9794 36.5804C10.9443 36.7245 10.9117 36.8686 10.8827 37.0144C10.5172 38.7886 10.5673 40.5593 10.9706 42.2202C11.9504 46.2633 15.0199 49.6579 19.2528 50.882C19.3117 50.8996 19.3714 50.9171 19.4321 50.9338L19.3908 50.9233C19.3671 50.9171 19.3433 50.9101 19.3196 50.9048C19.2651 50.8881 19.2106 50.8732 19.1562 50.8591C14.2826 49.4426 10.7334 45.5603 9.54793 40.9179C9.0778 39.0795 8.97938 37.1225 9.3177 35.1515C9.37218 34.8272 9.43896 34.5004 9.51805 34.1761L9.5163 34.177Z" fill="url(#paint2_linear_540_953)"/>
<path d="M3.67121 24.553C3.99371 23.2314 4.42957 21.9677 4.96737 20.7717C5.72221 19.0845 6.67741 17.5283 7.79518 16.1232C8.62735 15.0783 9.54828 14.117 10.5448 13.2496C11.3453 12.551 12.1959 11.9131 13.087 11.341C13.848 10.8515 14.6397 10.4078 15.457 10.015C16.1872 9.66259 16.9377 9.35064 17.7057 9.08262C18.4263 8.82779 19.1627 8.61161 19.9113 8.43498C20.6583 8.25923 21.4166 8.12039 22.1847 8.02373C23.0397 7.91388 23.907 7.85501 24.7805 7.84974C26.5468 7.83831 28.3429 8.0413 30.1356 8.47892C32.1637 8.97453 34.2094 7.81898 34.8562 5.87167C34.8905 5.76886 34.9212 5.66253 34.9476 5.5562C34.981 5.41824 35.0074 5.28028 35.0249 5.14319C35.0407 5.04038 35.0495 4.93844 35.0548 4.83651C35.0689 4.62473 35.0636 4.41471 35.0416 4.2082C35.0372 4.15987 35.0311 4.11154 35.024 4.06233C34.9704 3.67217 34.8588 3.29606 34.6954 2.94456C34.6189 2.77672 34.5293 2.61503 34.4309 2.45861C34.3957 2.40413 34.3597 2.3514 34.3219 2.30044C34.2516 2.20202 34.1761 2.10448 34.097 2.01309C33.7314 1.58777 33.2718 1.23451 32.7419 0.993737C32.6251 0.940133 32.5047 0.891805 32.3799 0.848747C32.3219 0.828536 32.2621 0.809201 32.2024 0.791626L32.2753 0.809202C32.2841 0.81096 32.2947 0.813594 32.3035 0.817987L32.3421 0.827658C32.4027 0.844354 32.4625 0.861926 32.5214 0.879501C36.1418 1.96212 38.7253 4.95162 39.4275 8.46486C39.7051 9.84801 39.692 11.3138 39.3352 12.7742C39.3044 12.9017 39.2702 13.0282 39.2341 13.1547C38.8659 14.4447 38.2552 15.6047 37.4661 16.5977C36.6506 17.6258 35.6436 18.4747 34.5109 19.1047C32.3948 20.2867 29.8438 20.7006 27.3051 20.0802C24.835 19.4765 22.3595 19.4852 20.0361 20.0099C18.8542 20.2761 17.7092 20.6768 16.6283 21.197C15.6327 21.6768 14.6898 22.2568 13.8146 22.9308C12.9139 23.6224 12.0861 24.4115 11.3488 25.2876C10.5334 26.2516 9.82948 27.3193 9.25741 28.4792C8.74686 29.5083 8.34264 30.6093 8.0588 31.7719C7.96829 32.1427 7.89184 32.5136 7.82769 32.8844C7.4551 35.0672 7.54913 37.2351 8.04298 39.2791C9.3532 44.6983 13.4736 49.2432 19.1583 50.861C19.2004 50.8741 19.2444 50.8864 19.2874 50.8987C19.1855 50.8706 19.0853 50.8434 18.986 50.8144C19.0572 50.8364 19.1293 50.8574 19.2022 50.8768C9.31189 48.194 2.78983 39.0892 3.05258 29.1884C3.09388 27.6567 3.29687 26.104 3.67561 24.5539L3.67121 24.553Z" fill="url(#paint3_linear_540_953)"/>
<path d="M0.7479 19.7409C4.06517 6.15891 17.5399 -2.27619 31.1227 0.541954C31.2413 0.566559 31.3556 0.591164 31.4733 0.618405C31.49 0.622799 31.5058 0.626313 31.5243 0.62895L31.5937 0.645646C31.6025 0.647404 31.613 0.650041 31.6236 0.651798H31.628C31.628 0.651798 31.6297 0.653552 31.6306 0.653552L31.7448 0.681673C31.7545 0.681673 31.7642 0.685187 31.773 0.686945L31.8556 0.70716C31.9109 0.719462 31.9663 0.730885 32.0225 0.744945C32.0788 0.759005 32.1332 0.773944 32.1877 0.788883L32.1983 0.791516C32.258 0.809091 32.3178 0.828426 32.3758 0.848637C32.5006 0.891696 32.621 0.940024 32.7378 0.993627C33.2686 1.2344 33.7273 1.58766 34.0929 2.01298C34.1728 2.10437 34.2475 2.20191 34.3178 2.30033C34.3556 2.35217 34.3916 2.4049 34.4268 2.4585C34.5252 2.61492 34.6148 2.77661 34.6913 2.94445C34.8556 3.29595 34.9663 3.67118 35.0199 4.06222C35.027 4.10967 35.0331 4.158 35.0375 4.20809C35.0595 4.4146 35.0648 4.62462 35.0507 4.8364C35.0463 4.93921 35.0366 5.04027 35.0208 5.14308C35.0032 5.28017 34.9769 5.41813 34.9435 5.55609C34.9171 5.66242 34.8872 5.76875 34.8521 5.87156C33.65 5.35661 32.3881 4.93218 31.0761 4.61144C29.7641 4.2907 28.4487 4.08595 27.1446 3.98928C26.5075 3.94183 25.8713 3.91986 25.2386 3.92426C24.6736 3.92777 24.1103 3.9515 23.5505 3.99631C22.9952 4.03849 22.4433 4.10176 21.8976 4.18173C21.3185 4.26785 20.7456 4.37681 20.1788 4.50335C19.5505 4.64483 18.9283 4.81179 18.3158 5.00336C17.6049 5.22392 16.9081 5.47964 16.2235 5.76524H16.2218C15.387 6.1141 14.5724 6.50866 13.7824 6.95067H13.7806C12.7498 7.52449 11.763 8.17476 10.8263 8.89709C9.48177 9.93138 8.2445 11.1107 7.14079 12.42C5.24182 14.6696 3.73564 17.3014 2.75936 20.2329C2.55021 20.8577 2.36567 21.4957 2.20662 22.1469C-0.849665 34.6611 6.56433 47.2808 18.8483 50.7818C5.49577 47.0207 -2.57288 33.3228 0.745267 19.7409H0.7479Z" fill="url(#paint4_linear_540_953)"/>
<path d="M140.913 8.39148V33.8278C140.913 35.9781 139.13 37.7613 136.716 37.7613C134.303 37.7613 132.519 35.9781 132.519 33.8278V8.39148H125.437C123.286 8.39148 121.502 6.60831 121.502 4.45803C121.502 2.30774 123.286 0.524567 125.437 0.524567H147.996C150.147 0.524567 151.931 2.30774 151.931 4.45803C151.931 6.60831 150.147 8.39148 147.996 8.39148H140.913Z" fill="white"/>
<path d="M110.73 29.3699H121.747C123.898 29.3699 125.682 31.153 125.682 33.3033C125.682 35.4536 123.898 37.2368 121.747 37.2368H106.271C104.12 37.2368 102.336 35.4536 102.336 33.3033V3.93352C102.336 1.78323 104.12 6.10352e-05 106.533 6.10352e-05C108.946 6.10352e-05 110.73 1.78323 110.73 3.93352V29.3699Z" fill="white"/>
<path d="M88.1757 35.0864L86.0247 29.5272H71.4923L69.2889 35.0864C68.6593 36.6598 67.2952 37.7612 65.3541 37.7612C63.2031 37.7612 61.6816 36.0305 61.6816 34.09C61.6816 33.5655 61.7341 33.0935 61.944 32.6215L73.8007 3.88101C74.7975 1.41605 76.4239 0 78.9946 0C81.6178 0 83.0343 1.3636 84.0836 3.82857L95.8879 32.1495C96.0977 32.6739 96.2027 33.1984 96.2027 33.7228C96.2027 35.8731 94.4714 37.7612 92.1105 37.7612C90.2218 37.7612 88.8053 36.6598 88.1757 35.0864ZM82.8769 21.6602L78.7848 11.2759L74.6401 21.6602H82.8769Z" fill="white"/>
<path d="M60.0436 53L62.9985 45.291H64.6232L67.5672 53H66.0952L65.5827 51.5716H62.0281L61.5047 53H60.0436ZM62.4642 50.3395H65.1357L63.8054 46.6649L62.4642 50.3395ZM70.8192 55.6278C70.3976 55.6278 70.0014 55.5587 69.6307 55.4206C69.2672 55.2898 68.9583 55.079 68.7038 54.7882C68.4567 54.5047 68.2895 54.1376 68.2023 53.6869H69.5652C69.6089 53.8614 69.6961 54.0031 69.8269 54.1122C69.9578 54.2212 70.1104 54.2975 70.2849 54.3412C70.4666 54.392 70.652 54.4175 70.841 54.4175C71.1972 54.4175 71.477 54.3448 71.6806 54.1994C71.8914 54.054 72.0404 53.8541 72.1276 53.5997C72.2149 53.3526 72.2585 53.08 72.2585 52.7819V52.2367C72.1276 52.4475 71.9604 52.6147 71.7569 52.7383C71.5606 52.8619 71.3498 52.9491 71.1245 53C70.9064 53.0436 70.6883 53.0654 70.4702 53.0654C69.8742 53.0654 69.3871 52.9346 69.0091 52.6729C68.6384 52.4112 68.3658 52.0623 68.1914 51.6261C68.0169 51.1827 67.9297 50.6957 67.9297 50.165C67.9297 49.6126 68.0242 49.111 68.2132 48.6603C68.4094 48.2023 68.7002 47.8389 69.0855 47.5699C69.478 47.301 69.9687 47.1665 70.5575 47.1665C70.8991 47.1665 71.219 47.2283 71.517 47.3519C71.8223 47.4682 72.0767 47.6463 72.2803 47.8861L72.3675 47.2537H73.5996V52.4984C73.5996 53.1454 73.5051 53.7015 73.3161 54.1667C73.1344 54.6392 72.84 54.999 72.4329 55.2462C72.0259 55.5006 71.4879 55.6278 70.8192 55.6278ZM70.7428 51.8878C71.0845 51.8878 71.368 51.8079 71.5933 51.6479C71.8187 51.4807 71.9895 51.2627 72.1058 50.9937C72.2221 50.7175 72.2803 50.4194 72.2803 50.0996C72.2803 49.7725 72.2221 49.4781 72.1058 49.2164C71.9968 48.9547 71.8296 48.7475 71.6042 48.5949C71.3862 48.4422 71.1027 48.3659 70.7537 48.3659C70.383 48.3659 70.0886 48.4495 69.8705 48.6167C69.6525 48.7839 69.4925 49.0056 69.3908 49.2818C69.2963 49.5508 69.249 49.8379 69.249 50.1432C69.249 50.4631 69.2999 50.7575 69.4017 51.0264C69.5034 51.2881 69.6634 51.4989 69.8814 51.6588C70.0995 51.8115 70.3867 51.8878 70.7428 51.8878ZM74.779 53V47.2537H76.1093V53H74.779ZM75.4442 46.5886C75.1897 46.5886 74.9862 46.5123 74.8335 46.3596C74.6809 46.207 74.6046 46.0071 74.6046 45.7599C74.6046 45.52 74.6845 45.3238 74.8444 45.1711C75.0044 45.0112 75.2043 44.9312 75.4442 44.9312C75.6768 44.9312 75.8767 45.0075 76.0439 45.1602C76.2111 45.3128 76.2946 45.5128 76.2946 45.7599C76.2946 46.0071 76.2147 46.207 76.0548 46.3596C75.8948 46.5123 75.6913 46.5886 75.4442 46.5886ZM77.2894 53V45.291H78.6197V53H77.2894ZM82.3732 53.0763C81.7771 53.0763 81.2682 52.9528 80.8466 52.7056C80.4323 52.4584 80.1161 52.1168 79.898 51.6806C79.6872 51.2372 79.5818 50.7247 79.5818 50.1432C79.5818 49.5617 79.6908 49.0492 79.9089 48.6058C80.1342 48.1551 80.4541 47.8025 80.8684 47.5481C81.29 47.2937 81.7953 47.1665 82.3841 47.1665C82.8202 47.1665 83.2018 47.2464 83.5289 47.4064C83.8561 47.559 84.1287 47.7698 84.3467 48.0388C84.5721 48.3077 84.7393 48.6131 84.8483 48.9547C84.9573 49.2964 85.0082 49.6562 85.001 50.0342C84.9937 50.1214 84.9864 50.2086 84.9791 50.2959C84.9719 50.3758 84.961 50.4631 84.9464 50.5576H80.912C80.9339 50.812 80.9993 51.0446 81.1083 51.2554C81.2246 51.4662 81.3845 51.6334 81.5881 51.757C81.7989 51.8805 82.0606 51.9423 82.3732 51.9423C82.5549 51.9423 82.7293 51.9205 82.8965 51.8769C83.0637 51.826 83.2091 51.7533 83.3327 51.6588C83.4635 51.5643 83.5508 51.4444 83.5944 51.299H84.9246C84.8301 51.7134 84.6557 52.0514 84.4013 52.3131C84.1468 52.5748 83.8415 52.7674 83.4853 52.891C83.1364 53.0145 82.7657 53.0763 82.3732 53.0763ZM80.9339 49.5653H83.7034C83.7034 49.3254 83.6489 49.1074 83.5399 48.9111C83.4308 48.7148 83.2745 48.5622 83.071 48.4531C82.8747 48.3368 82.6348 48.2787 82.3513 48.2787C82.046 48.2787 81.7916 48.3405 81.5881 48.464C81.3845 48.5876 81.2283 48.7475 81.1192 48.9438C81.0102 49.1401 80.9484 49.3472 80.9339 49.5653ZM86.7916 53.1308C86.5589 53.1308 86.359 53.0545 86.1919 52.9019C86.0319 52.7492 85.952 52.542 85.952 52.2804C85.952 52.0187 86.0356 51.8115 86.2028 51.6588C86.3699 51.4989 86.5698 51.419 86.8025 51.419C87.0351 51.419 87.2313 51.4989 87.3913 51.6588C87.5512 51.8115 87.6311 52.0187 87.6311 52.2804C87.6311 52.542 87.5512 52.7492 87.3913 52.9019C87.2313 53.0545 87.0314 53.1308 86.7916 53.1308ZM91.5423 53V45.291H92.9052V51.757H96.9178V53H91.5423ZM97.6147 53V47.2537H98.945V53H97.6147ZM98.2799 46.5886C98.0254 46.5886 97.8219 46.5123 97.6692 46.3596C97.5166 46.207 97.4403 46.0071 97.4403 45.7599C97.4403 45.52 97.5202 45.3238 97.6802 45.1711C97.8401 45.0112 98.04 44.9312 98.2799 44.9312C98.5125 44.9312 98.7124 45.0075 98.8796 45.1602C99.0468 45.3128 99.1304 45.5128 99.1304 45.7599C99.1304 46.0071 99.0504 46.207 98.8905 46.3596C98.7305 46.5123 98.527 46.5886 98.2799 46.5886ZM102.328 53.0763C102.051 53.0763 101.775 53.0472 101.499 52.9891C101.23 52.9309 100.976 52.8364 100.736 52.7056C100.496 52.5675 100.296 52.3821 100.136 52.1495C99.9761 51.9169 99.8707 51.6261 99.8198 51.2772H101.161C101.219 51.4371 101.31 51.568 101.434 51.6697C101.564 51.7642 101.713 51.8369 101.881 51.8878C102.055 51.9314 102.226 51.9532 102.393 51.9532C102.495 51.9532 102.604 51.946 102.72 51.9314C102.844 51.9169 102.956 51.8878 103.058 51.8442C103.167 51.8006 103.255 51.7388 103.32 51.6588C103.385 51.5716 103.418 51.4589 103.418 51.3208C103.418 51.19 103.382 51.0882 103.309 51.0155C103.236 50.9356 103.138 50.8738 103.015 50.8302C102.891 50.7793 102.742 50.7393 102.568 50.7102C102.255 50.6448 101.921 50.5757 101.564 50.503C101.208 50.4231 100.899 50.2995 100.638 50.1323C100.529 50.0669 100.434 49.9906 100.354 49.9033C100.274 49.8161 100.205 49.7216 100.147 49.6198C100.096 49.5108 100.056 49.3945 100.027 49.2709C100.005 49.1473 99.9943 49.0129 99.9943 48.8675C99.9943 48.5622 100.056 48.3041 100.18 48.0933C100.311 47.8752 100.481 47.7008 100.692 47.5699C100.91 47.4318 101.157 47.33 101.434 47.2646C101.71 47.1992 101.993 47.1665 102.284 47.1665C102.677 47.1665 103.033 47.2283 103.353 47.3519C103.673 47.4754 103.938 47.6644 104.149 47.9188C104.367 48.1733 104.498 48.4967 104.541 48.8893H103.276C103.24 48.7076 103.127 48.5622 102.938 48.4531C102.757 48.3441 102.524 48.2896 102.24 48.2896C102.139 48.2896 102.033 48.3005 101.924 48.3223C101.815 48.3368 101.71 48.3659 101.608 48.4095C101.514 48.4459 101.434 48.504 101.368 48.584C101.31 48.6639 101.281 48.7621 101.281 48.8784C101.281 48.9874 101.306 49.0819 101.357 49.1619C101.415 49.2418 101.499 49.3109 101.608 49.369C101.724 49.4199 101.859 49.4635 102.012 49.4999C102.259 49.5508 102.517 49.6017 102.786 49.6525C103.055 49.7034 103.287 49.7543 103.484 49.8052C103.716 49.8706 103.927 49.9651 104.116 50.0887C104.305 50.205 104.45 50.3613 104.552 50.5576C104.661 50.7466 104.716 50.9901 104.716 51.2881C104.716 51.637 104.643 51.9278 104.498 52.1604C104.359 52.393 104.174 52.5748 103.941 52.7056C103.709 52.8364 103.451 52.9309 103.167 52.9891C102.884 53.0472 102.604 53.0763 102.328 53.0763ZM107.875 53.0654C107.242 53.0654 106.781 52.891 106.49 52.542C106.199 52.1931 106.054 51.7097 106.054 51.0918V48.4313H105.171V47.2537H106.054V45.64H107.384V47.2537H109.129V48.4313H107.384V50.8411C107.384 51.0301 107.406 51.2009 107.45 51.3535C107.493 51.5062 107.573 51.6261 107.69 51.7134C107.806 51.8006 107.966 51.8478 108.169 51.8551C108.344 51.8551 108.493 51.826 108.616 51.7679C108.74 51.7097 108.842 51.6443 108.922 51.5716L109.369 52.5857C109.231 52.702 109.074 52.7965 108.9 52.8692C108.733 52.9418 108.562 52.9927 108.387 53.0218C108.213 53.0509 108.042 53.0654 107.875 53.0654ZM112.554 53.0763C111.957 53.0763 111.449 52.9528 111.027 52.7056C110.613 52.4584 110.296 52.1168 110.078 51.6806C109.868 51.2372 109.762 50.7247 109.762 50.1432C109.762 49.5617 109.871 49.0492 110.089 48.6058C110.315 48.1551 110.634 47.8025 111.049 47.5481C111.47 47.2937 111.976 47.1665 112.564 47.1665C113.001 47.1665 113.382 47.2464 113.709 47.4064C114.036 47.559 114.309 47.7698 114.527 48.0388C114.752 48.3077 114.92 48.6131 115.029 48.9547C115.138 49.2964 115.189 49.6562 115.181 50.0342C115.174 50.1214 115.167 50.2086 115.16 50.2959C115.152 50.3758 115.141 50.4631 115.127 50.5576H111.092C111.114 50.812 111.18 51.0446 111.289 51.2554C111.405 51.4662 111.565 51.6334 111.768 51.757C111.979 51.8805 112.241 51.9423 112.554 51.9423C112.735 51.9423 112.91 51.9205 113.077 51.8769C113.244 51.826 113.39 51.7533 113.513 51.6588C113.644 51.5643 113.731 51.4444 113.775 51.299H115.105C115.011 51.7134 114.836 52.0514 114.582 52.3131C114.327 52.5748 114.022 52.7674 113.666 52.891C113.317 53.0145 112.946 53.0763 112.554 53.0763ZM111.114 49.5653H113.884C113.884 49.3254 113.829 49.1074 113.72 48.9111C113.611 48.7148 113.455 48.5622 113.251 48.4531C113.055 48.3368 112.815 48.2787 112.532 48.2787C112.226 48.2787 111.972 48.3405 111.768 48.464C111.565 48.5876 111.409 48.7475 111.3 48.9438C111.191 49.1401 111.129 49.3472 111.114 49.5653ZM116.132 53V47.2537H117.375L117.452 47.9843C117.604 47.7807 117.782 47.6208 117.986 47.5045C118.19 47.3882 118.404 47.3046 118.629 47.2537C118.855 47.1956 119.065 47.1665 119.262 47.1665C119.807 47.1665 120.236 47.2864 120.548 47.5263C120.868 47.7662 121.094 48.086 121.224 48.4858C121.355 48.8856 121.421 49.3327 121.421 49.827V53H120.09V50.0451C120.09 49.8343 120.076 49.6307 120.047 49.4345C120.018 49.2309 119.96 49.0492 119.872 48.8893C119.792 48.7294 119.676 48.6022 119.523 48.5077C119.371 48.4132 119.167 48.3659 118.913 48.3659C118.6 48.3659 118.335 48.4495 118.117 48.6167C117.899 48.7839 117.735 49.0092 117.626 49.2927C117.517 49.569 117.463 49.8852 117.463 50.2413V53H116.132ZM123.401 53.1308C123.168 53.1308 122.968 53.0545 122.801 52.9019C122.641 52.7492 122.561 52.542 122.561 52.2804C122.561 52.0187 122.645 51.8115 122.812 51.6588C122.979 51.4989 123.179 51.419 123.412 51.419C123.644 51.419 123.841 51.4989 124.001 51.6588C124.161 51.8115 124.241 52.0187 124.241 52.2804C124.241 52.542 124.161 52.7492 124.001 52.9019C123.841 53.0545 123.641 53.1308 123.401 53.1308ZM129.809 53V46.5341H127.399V45.291H133.571V46.5341H131.161V53H129.809ZM136.244 53.0763C135.648 53.0763 135.139 52.9528 134.717 52.7056C134.303 52.4584 133.987 52.1168 133.769 51.6806C133.558 51.2372 133.452 50.7247 133.452 50.1432C133.452 49.5617 133.561 49.0492 133.779 48.6058C134.005 48.1551 134.325 47.8025 134.739 47.5481C135.161 47.2937 135.666 47.1665 136.255 47.1665C136.691 47.1665 137.072 47.2464 137.399 47.4064C137.727 47.559 137.999 47.7698 138.217 48.0388C138.443 48.3077 138.61 48.6131 138.719 48.9547C138.828 49.2964 138.879 49.6562 138.871 50.0342C138.864 50.1214 138.857 50.2086 138.85 50.2959C138.842 50.3758 138.832 50.4631 138.817 50.5576H134.783C134.804 50.812 134.87 51.0446 134.979 51.2554C135.095 51.4662 135.255 51.6334 135.459 51.757C135.669 51.8805 135.931 51.9423 136.244 51.9423C136.425 51.9423 136.6 51.9205 136.767 51.8769C136.934 51.826 137.08 51.7533 137.203 51.6588C137.334 51.5643 137.421 51.4444 137.465 51.299H138.795C138.701 51.7134 138.526 52.0514 138.272 52.3131C138.017 52.5748 137.712 52.7674 137.356 52.891C137.007 53.0145 136.636 53.0763 136.244 53.0763ZM134.804 49.5653H137.574C137.574 49.3254 137.519 49.1074 137.41 48.9111C137.301 48.7148 137.145 48.5622 136.942 48.4531C136.745 48.3368 136.505 48.2787 136.222 48.2787C135.917 48.2787 135.662 48.3405 135.459 48.464C135.255 48.5876 135.099 48.7475 134.99 48.9438C134.881 49.1401 134.819 49.3472 134.804 49.5653ZM142.459 53.0763C141.863 53.0763 141.361 52.9564 140.954 52.7165C140.547 52.4694 140.238 52.1241 140.027 51.6806C139.816 51.2372 139.711 50.7247 139.711 50.1432C139.711 49.5617 139.82 49.0492 140.038 48.6058C140.256 48.1551 140.576 47.8025 140.998 47.5481C141.419 47.2937 141.932 47.1665 142.535 47.1665C142.978 47.1665 143.371 47.2428 143.713 47.3955C144.062 47.5481 144.341 47.7735 144.552 48.0715C144.77 48.3623 144.908 48.7257 144.967 49.1619H143.658C143.571 48.8856 143.425 48.6857 143.222 48.5622C143.026 48.4313 142.789 48.3659 142.513 48.3659C142.142 48.3659 141.848 48.4568 141.63 48.6385C141.419 48.813 141.267 49.0347 141.172 49.3036C141.078 49.5726 141.03 49.8524 141.03 50.1432C141.03 50.4485 141.081 50.7357 141.183 51.0046C141.285 51.2663 141.441 51.4771 141.652 51.637C141.87 51.797 142.15 51.8769 142.491 51.8769C142.768 51.8769 143.015 51.8151 143.233 51.6915C143.458 51.568 143.604 51.3681 143.669 51.0918H145.021C144.97 51.5353 144.821 51.906 144.574 52.204C144.334 52.4948 144.029 52.7129 143.658 52.8583C143.287 53.0036 142.888 53.0763 142.459 53.0763ZM145.911 53V45.291H147.241V47.9952C147.394 47.7989 147.572 47.639 147.775 47.5154C147.979 47.3918 148.193 47.3046 148.419 47.2537C148.644 47.1956 148.858 47.1665 149.062 47.1665C149.607 47.1665 150.036 47.2864 150.349 47.5263C150.661 47.7662 150.879 48.086 151.003 48.4858C151.134 48.8856 151.199 49.3363 151.199 49.8379V53H149.869V50.0669C149.869 49.8706 149.854 49.6707 149.825 49.4672C149.796 49.2636 149.738 49.0819 149.651 48.922C149.571 48.7548 149.447 48.6203 149.28 48.5186C149.12 48.4168 148.906 48.3659 148.637 48.3659C148.382 48.3659 148.164 48.4204 147.982 48.5295C147.801 48.6312 147.655 48.773 147.546 48.9547C147.445 49.1364 147.368 49.3363 147.317 49.5544C147.266 49.7725 147.241 49.9906 147.241 50.2086V53H145.911Z" fill="white"/>
<defs>
<linearGradient id="paint0_linear_540_953" x1="47.1879" y1="13.5975" x2="7.93806" y2="37.4337" gradientUnits="userSpaceOnUse">
<stop stop-color="#FF0000"/>
<stop offset="1" stop-color="#0000FF"/>
</linearGradient>
<linearGradient id="paint1_linear_540_953" x1="51.3089" y1="32.099" x2="22.3057" y2="25.0127" gradientUnits="userSpaceOnUse">
<stop stop-color="#FF0000"/>
<stop offset="1" stop-color="#0000FF"/>
</linearGradient>
<linearGradient id="paint2_linear_540_953" x1="45.012" y1="14.2603" x2="6.75884" y2="37.4912" gradientUnits="userSpaceOnUse">
<stop stop-color="#FF0000"/>
<stop offset="1" stop-color="#0000FF"/>
</linearGradient>
<linearGradient id="paint3_linear_540_953" x1="43.7249" y1="14.3853" x2="4.47507" y2="38.2214" gradientUnits="userSpaceOnUse">
<stop stop-color="#FF0000"/>
<stop offset="1" stop-color="#0000FF"/>
</linearGradient>
<linearGradient id="paint4_linear_540_953" x1="29.758" y1="26.8159" x2="0.754763" y2="19.7296" gradientUnits="userSpaceOnUse">
<stop stop-color="#0000FF"/>
<stop offset="1" stop-color="#FF0000"/>
</linearGradient>
</defs>
</svg>
