<svg width="152" height="55" viewBox="0 0 152 55" fill="none" xmlns="http://www.w3.org/2000/svg">
<path d="M12.44 38.9878C12.4708 38.8604 12.505 38.7338 12.5402 38.6082C12.9084 37.3182 13.5174 36.1582 14.3082 35.1652C15.1237 34.1371 16.1308 33.2882 17.2626 32.6564C19.3786 31.4762 21.9296 31.0624 24.4683 31.6819C26.9376 32.2847 29.413 32.2768 31.7364 31.7504C32.9183 31.4859 34.0625 31.0852 35.1442 30.5632C36.1407 30.0852 37.0863 29.5035 37.9615 28.8286C38.8622 28.137 39.69 27.3496 40.4272 26.4735C41.241 25.5113 41.9457 24.4436 42.5178 23.2854C43.0275 22.2547 43.4326 21.1536 43.7173 19.991C43.8078 19.6202 43.8842 19.2493 43.9484 18.8785C44.321 16.6957 44.227 14.5278 43.7313 12.4839C43.69 12.3134 43.6461 12.1438 43.5995 11.9742C43.553 11.8055 43.5029 11.6376 43.4501 11.4715C43.2849 10.9452 43.0934 10.4302 42.8772 9.9267C42.8306 9.81597 42.7805 9.70525 42.7305 9.59541C42.4651 9.01631 42.1654 8.45303 41.8341 7.91173C41.7893 7.83615 41.7427 7.76409 41.697 7.6894C41.697 7.6894 41.6962 7.68823 41.6944 7.68589C41.603 7.53914 41.5081 7.39502 41.4106 7.25354L41.4079 7.25003C41.3113 7.10679 41.2102 6.96443 41.1092 6.82647C41.0573 6.75441 41.0046 6.68323 40.951 6.61205C40.8464 6.47497 40.741 6.33964 40.632 6.20607C40.5766 6.13577 40.5195 6.06723 40.4624 5.99781C40.1838 5.66564 39.893 5.34314 39.5872 5.03294C39.4641 4.90728 39.3367 4.78338 39.2084 4.66036C39.0239 4.48461 38.8341 4.31413 38.6408 4.14628C38.0318 3.62079 37.3798 3.13924 36.6882 2.70777C36.4887 2.58387 36.2866 2.46172 36.0801 2.34573C35.5783 2.06277 35.059 1.8053 34.5203 1.57682C34.3683 1.5118 34.2154 1.44853 34.059 1.38702C33.8665 1.31144 33.6723 1.24027 33.4755 1.17172C33.3208 1.11812 33.1644 1.06715 33.0071 1.01794C32.9184 0.989822 32.8287 0.961703 32.7408 0.937098C32.6969 0.923039 32.6512 0.910737 32.6073 0.899313C32.5669 0.886132 32.5264 0.874705 32.486 0.863281L32.5229 0.872072C32.5387 0.877344 32.5554 0.881735 32.5712 0.88525C42.4659 3.56895 48.9889 12.6772 48.7226 22.5807C48.6813 24.1123 48.4783 25.6607 48.0996 27.2082C47.7771 28.5298 47.3412 29.7934 46.8034 30.9894C46.0486 32.6766 45.0934 34.2329 43.9756 35.638C43.1435 36.6828 42.2225 37.6442 41.226 38.5115C40.4237 39.2092 39.5749 39.8481 38.6838 40.4201C37.9228 40.9096 37.1311 41.3534 36.3138 41.7462C35.5836 42.0986 34.8331 42.4105 34.0651 42.6785C33.3445 42.9334 32.6082 43.1495 31.8595 43.3262C31.1125 43.5037 30.3524 43.6416 29.5844 43.7383C28.7294 43.8473 27.8638 43.9053 26.9903 43.9123C25.2249 43.9228 23.4279 43.7199 21.6335 43.2814C19.6053 42.7857 17.5596 43.9413 16.9128 45.8886C16.8786 45.9914 16.8478 46.0977 16.8215 46.2041C16.2995 48.3412 17.6088 50.4941 19.7442 51.0161C19.6941 51.0038 19.6449 50.9915 19.5948 50.9783L19.5798 50.9748H19.5772C19.5728 50.973 19.5684 50.9704 19.5658 50.9695L19.4814 50.9493C19.4744 50.9458 19.4682 50.9449 19.4621 50.9432L19.4296 50.9353C19.3689 50.9186 19.3092 50.901 19.2503 50.8834C15.6316 49.8017 13.049 46.8139 12.3469 43.2998C12.0674 41.9149 12.0815 40.4492 12.4383 38.9869L12.44 38.9878Z" fill="url(#paint0_linear_6_7366)"/>
<path d="M16.82 46.2053C16.8463 46.0981 16.8762 45.9926 16.9113 45.8898C18.1135 46.4047 19.3754 46.8292 20.6873 47.1499C21.9993 47.4707 23.3148 47.6754 24.6188 47.7721C25.2559 47.8195 25.8921 47.8415 26.5248 47.8371C27.0899 47.8336 27.6532 47.8099 28.2129 47.765C28.7683 47.7229 29.3201 47.6596 29.8676 47.5796C30.4467 47.4918 31.0196 47.3845 31.5864 47.258C32.2147 47.1165 32.836 46.9487 33.4485 46.7571C34.1594 46.5365 34.858 46.2808 35.5417 45.9961C36.3782 45.6473 37.1928 45.2509 37.9828 44.8107C39.0145 44.2342 40.0048 43.584 40.9416 42.8625C42.2852 41.8265 43.5242 40.6472 44.6279 39.3378C46.5251 37.0891 48.0296 34.4582 49.0058 31.5293C49.215 30.9045 49.3995 30.2665 49.5586 29.6154C52.6149 17.1011 45.2009 4.4814 32.9169 0.980469C46.2694 4.74151 54.3381 18.4394 51.0199 32.0214C47.7027 45.6033 34.2279 54.0384 20.6451 51.2203C20.5283 51.1983 20.4105 51.1711 20.2945 51.1438C20.3675 51.1605 20.4413 51.1746 20.5151 51.1878C20.4132 51.1676 20.3112 51.1456 20.2084 51.1236L20.1741 51.1157C20.161 51.1122 20.146 51.1087 20.132 51.1069L20.0283 51.0814C20.0221 51.0797 20.016 51.0788 20.0089 51.0779L19.9246 51.0577C19.9202 51.0568 19.9175 51.056 19.9123 51.056H19.9096C19.8543 51.0436 19.7998 51.0296 19.7444 51.0164C17.6091 50.4944 16.2997 48.3415 16.8217 46.2044L16.82 46.2053Z" fill="url(#paint1_linear_6_7366)"/>
<path d="M9.5163 34.1762C9.78783 33.0655 10.185 32.0172 10.6912 31.047C11.2703 29.9301 11.9917 28.9152 12.8257 28.0153C13.6244 27.1524 14.5278 26.3976 15.5102 25.7675C16.5638 25.0882 17.7089 24.5513 18.9127 24.177C21.2502 23.4467 23.8074 23.3237 26.3575 23.9467C28.9305 24.575 31.5131 24.3184 33.7855 23.3676C34.9727 22.8738 36.0773 22.1875 37.0475 21.3404C37.9657 20.5398 38.7689 19.5943 39.413 18.5275C40.0273 17.5134 40.4974 16.3895 40.7936 15.1786C40.8287 15.0345 40.8612 14.8903 40.8902 14.7445C41.2558 12.9703 41.2057 11.1996 40.8023 9.53877C39.8208 5.49477 36.7522 2.10016 32.5193 0.876067C32.4595 0.856735 32.4006 0.840915 32.34 0.824219L32.3743 0.83213C32.4525 0.85322 32.5307 0.875188 32.608 0.897156C37.486 2.31194 41.0387 6.19513 42.2242 10.8402C42.6943 12.6785 42.7945 14.6364 42.4561 16.6074C42.4017 16.9317 42.3349 17.2586 42.2558 17.5828C41.9843 18.6936 41.5871 19.7419 41.0809 20.7121C40.5018 21.8281 39.7804 22.8439 38.9473 23.742C38.1476 24.604 37.2452 25.3598 36.2627 25.9898C35.2082 26.6708 34.0641 27.2078 32.8585 27.5812C30.521 28.3115 27.9638 28.4345 25.4137 27.8115C22.8407 27.1832 20.259 27.4406 17.9874 28.3888C16.7994 28.8844 15.6974 29.569 14.7255 30.4161C13.8055 31.2175 13.004 32.1639 12.3599 33.2307C11.7457 34.2448 11.2755 35.3687 10.9794 36.5796C10.9443 36.7237 10.9117 36.8678 10.8827 37.0137C10.5172 38.7879 10.5673 40.5586 10.9706 42.2194C11.9504 46.2625 15.0199 49.6572 19.2528 50.8813C19.3117 50.8988 19.3714 50.9164 19.4321 50.9331L19.3908 50.9226C19.3671 50.9164 19.3433 50.9094 19.3196 50.9041C19.2651 50.8874 19.2106 50.8725 19.1562 50.8584C14.2826 49.4419 10.7334 45.5595 9.54793 40.9171C9.0778 39.0788 8.97938 37.1218 9.3177 35.1508C9.37218 34.8265 9.43896 34.4996 9.51805 34.1754L9.5163 34.1762Z" fill="url(#paint2_linear_6_7366)"/>
<path d="M3.67121 24.5524C3.99371 23.2307 4.42957 21.9671 4.96737 20.7711C5.72221 19.0839 6.67741 17.5277 7.79518 16.1225C8.62735 15.0777 9.54828 14.1164 10.5448 13.249C11.3453 12.5504 12.1959 11.9125 13.087 11.3404C13.848 10.8509 14.6397 10.4072 15.457 10.0144C16.1872 9.66198 16.9377 9.35003 17.7057 9.08201C18.4263 8.82718 19.1627 8.611 19.9113 8.43437C20.6583 8.25862 21.4166 8.11978 22.1847 8.02312C23.0397 7.91327 23.907 7.8544 24.7805 7.84912C26.5468 7.8377 28.3429 8.04069 30.1356 8.47831C32.1637 8.97392 34.2094 7.81837 34.8562 5.87106C34.8905 5.76825 34.9212 5.66192 34.9476 5.55559C34.981 5.41763 35.0074 5.27966 35.0249 5.14258C35.0407 5.03977 35.0495 4.93783 35.0548 4.8359C35.0689 4.62412 35.0636 4.4141 35.0416 4.20759C35.0372 4.15926 35.0311 4.11093 35.024 4.06172C34.9704 3.67156 34.8588 3.29545 34.6954 2.94395C34.6189 2.77611 34.5293 2.61442 34.4309 2.458C34.3957 2.40352 34.3597 2.35079 34.3219 2.29983C34.2516 2.20141 34.1761 2.10387 34.097 2.01248C33.7314 1.58716 33.2718 1.2339 32.7419 0.993127C32.6251 0.939523 32.5047 0.891195 32.3799 0.848136C32.3219 0.827925 32.2621 0.808591 32.2024 0.791016L32.2753 0.808592C32.2841 0.810349 32.2947 0.812983 32.3034 0.817377L32.3421 0.827047C32.4027 0.843744 32.4625 0.861316 32.5214 0.87889C36.1418 1.96151 38.7253 4.95101 39.4275 8.46425C39.7051 9.8474 39.692 11.3132 39.3352 12.7736C39.3044 12.901 39.2702 13.0276 39.2341 13.1541C38.8659 14.4441 38.2552 15.6041 37.4661 16.5971C36.6506 17.6252 35.6436 18.4741 34.5109 19.1041C32.3948 20.2861 29.8438 20.6999 27.3051 20.0795C24.835 19.4758 22.3595 19.4846 20.0361 20.0092C18.8542 20.2755 17.7092 20.6762 16.6283 21.1964C15.6327 21.6762 14.6898 22.2562 13.8146 22.9302C12.9139 23.6218 12.0861 24.4109 11.3488 25.287C10.5334 26.251 9.82948 27.3187 9.25741 28.4786C8.74686 29.5076 8.34264 30.6087 8.0588 31.7713C7.96829 32.1421 7.89184 32.513 7.82769 32.8838C7.4551 35.0666 7.54913 37.2345 8.04298 39.2784C9.3532 44.6977 13.4736 49.2426 19.1583 50.8604C19.2004 50.8735 19.2444 50.8858 19.2874 50.8981C19.1855 50.87 19.0853 50.8428 18.986 50.8138C19.0572 50.8357 19.1293 50.8568 19.2022 50.8762C9.31189 48.1933 2.78983 39.0886 3.05258 29.1878C3.09388 27.6561 3.29687 26.1034 3.67561 24.5533L3.67121 24.5524Z" fill="url(#paint3_linear_6_7366)"/>
<path d="M0.7479 19.7409C4.06517 6.15891 17.5399 -2.27619 31.1227 0.541955C31.2413 0.566559 31.3556 0.591164 31.4733 0.618405C31.49 0.622799 31.5058 0.626314 31.5243 0.62895L31.5937 0.645646C31.6025 0.647404 31.613 0.650041 31.6236 0.651798H31.628C31.628 0.651798 31.6297 0.653552 31.6306 0.653552L31.7449 0.681673C31.7545 0.681673 31.7642 0.685187 31.773 0.686945L31.8556 0.70716C31.9109 0.719462 31.9663 0.730885 32.0225 0.744945C32.0788 0.759005 32.1332 0.773944 32.1877 0.788883L32.1983 0.791516C32.258 0.809091 32.3178 0.828426 32.3758 0.848637C32.5006 0.891696 32.621 0.940024 32.7378 0.993627C33.2686 1.2344 33.7273 1.58766 34.0929 2.01298C34.1728 2.10437 34.2475 2.20191 34.3178 2.30033C34.3556 2.35217 34.3916 2.4049 34.4268 2.4585C34.5252 2.61492 34.6148 2.77661 34.6913 2.94445C34.8556 3.29595 34.9663 3.67118 35.0199 4.06222C35.027 4.10967 35.0331 4.158 35.0375 4.20809C35.0595 4.4146 35.0648 4.62462 35.0507 4.8364C35.0463 4.93921 35.0366 5.04027 35.0208 5.14308C35.0032 5.28017 34.9769 5.41813 34.9435 5.55609C34.9171 5.66242 34.8872 5.76875 34.8521 5.87156C33.65 5.35661 32.3881 4.93218 31.0761 4.61144C29.7641 4.2907 28.4487 4.08595 27.1446 3.98928C26.5075 3.94183 25.8713 3.91986 25.2386 3.92426C24.6736 3.92777 24.1103 3.9515 23.5505 3.99631C22.9952 4.03849 22.4433 4.10176 21.8976 4.18173C21.3185 4.26785 20.7456 4.37681 20.1788 4.50335C19.5505 4.64483 18.9283 4.81179 18.3158 5.00336C17.6049 5.22392 16.9081 5.47964 16.2235 5.76524H16.2218C15.387 6.1141 14.5724 6.50866 13.7824 6.95067H13.7806C12.7498 7.52449 11.763 8.17476 10.8263 8.89709C9.48177 9.93138 8.2445 11.1107 7.14079 12.42C5.24182 14.6696 3.73564 17.3014 2.75936 20.2329C2.55021 20.8577 2.36567 21.4957 2.20662 22.1469C-0.849665 34.6611 6.56433 47.2808 18.8483 50.7818C5.49577 47.0207 -2.57288 33.3228 0.745267 19.7409H0.7479Z" fill="url(#paint4_linear_6_7366)"/>
<path d="M140.913 8.39231V33.8287C140.913 35.979 139.13 37.7621 136.716 37.7621C134.303 37.7621 132.519 35.979 132.519 33.8287V8.39231H125.437C123.286 8.39231 121.502 6.60914 121.502 4.45885C121.502 2.30856 123.286 0.525391 125.437 0.525391H147.996C150.147 0.525391 151.931 2.30856 151.931 4.45885C151.931 6.60914 150.147 8.39231 147.996 8.39231H140.913Z" fill="#222F38"/>
<path d="M110.73 29.3698H121.747C123.898 29.3698 125.682 31.153 125.682 33.3033C125.682 35.4536 123.898 37.2367 121.747 37.2367H106.271C104.12 37.2367 102.336 35.4536 102.336 33.3033V3.93346C102.336 1.78317 104.12 0 106.533 0C108.946 0 110.73 1.78317 110.73 3.93346V29.3698Z" fill="#222F38"/>
<path d="M88.1757 35.0864L86.0247 29.5272H71.4923L69.2889 35.0864C68.6593 36.6598 67.2952 37.7612 65.3541 37.7612C63.2031 37.7612 61.6816 36.0305 61.6816 34.09C61.6816 33.5655 61.7341 33.0935 61.944 32.6215L73.8007 3.88101C74.7975 1.41605 76.4239 0 78.9946 0C81.6178 0 83.0343 1.3636 84.0836 3.82857L95.8879 32.1495C96.0977 32.6739 96.2027 33.1984 96.2027 33.7228C96.2027 35.8731 94.4714 37.7612 92.1105 37.7612C90.2218 37.7612 88.8053 36.6598 88.1757 35.0864ZM82.8769 21.6602L78.7848 11.2759L74.6401 21.6602H82.8769Z" fill="#222F38"/>
<path d="M60.4695 51.5078L63.6669 43.7093H64.9146L68.1121 51.5078H66.5969L65.8839 49.6807H62.6976L61.9846 51.5078H60.4695ZM63.0541 48.7449H65.5274L64.3799 45.7926H64.2016L63.0541 48.7449ZM72.7789 48.5889C71.8542 47.2075 71.4643 46.8844 70.9073 46.8844C70.172 46.8844 69.6149 47.6085 69.6149 48.5889C69.6149 49.5805 70.1608 50.3157 70.9073 50.3157C71.4754 50.3157 71.8654 49.9258 72.7789 48.5889ZM69.7598 51.8643C70.0494 52.555 70.5173 52.8447 71.2081 52.8447C72.1885 52.8447 72.7232 52.1094 72.7232 51.0399V50.1152H72.4447C71.7762 51.0956 71.2638 51.4521 70.5953 51.4521C69.2361 51.4521 68.3003 50.3046 68.3003 48.5889C68.3003 46.8732 69.225 45.7369 70.5953 45.7369C71.2638 45.7369 71.7874 46.1045 72.4781 47.1295H72.7232V45.9374H74.0378V51.0399C74.0378 52.8336 72.946 53.9365 71.2749 53.9365C69.6706 53.9365 68.7905 53.2346 68.4674 52.2208L69.7598 51.8643ZM75.1916 45.9374H76.5062V51.5078H75.1916V45.9374ZM75.1693 43.7093H76.5285V45.1687H75.1693V43.7093ZM77.6613 43.7093H78.9759V51.5078H77.6613V43.7093ZM79.9416 48.7226C79.9416 46.9067 81.0222 45.7369 82.6822 45.7369C84.3311 45.7369 85.4006 46.9178 85.4006 48.7338V48.9677H81.2228C81.3008 49.9704 81.8801 50.6165 82.7491 50.6165C83.5066 50.6165 84.0191 50.2043 84.2085 49.4579L85.4006 49.7364C85.0552 50.9842 84.086 51.7083 82.7491 51.7083C81.0557 51.7083 79.9416 50.5386 79.9416 48.7226ZM81.2339 48.3104H84.1194C84.0191 47.3077 83.4844 46.7618 82.6822 46.7618C81.9024 46.7618 81.3565 47.3523 81.2339 48.3104ZM86.3456 49.8813H87.9833V51.5078H86.3456V49.8813ZM91.9225 51.5078V43.7093H93.2705V50.3492H97.3035V51.5078H91.9225ZM98.0063 45.9374H99.3209V51.5078H98.0063V45.9374ZM97.984 43.7093H99.3432V45.1687H97.984V43.7093ZM103.662 47.5528C103.439 46.9958 102.938 46.7173 102.504 46.7173C101.969 46.7173 101.601 47.0404 101.601 47.4748C101.601 48.5778 104.832 47.7645 104.832 49.9147C104.832 50.9953 103.963 51.7083 102.682 51.7083C101.49 51.7083 100.599 51.2627 100.231 50.1152L101.3 49.781C101.546 50.4606 102.025 50.7168 102.615 50.7168C103.228 50.7168 103.595 50.3826 103.595 49.8924C103.595 48.834 100.376 49.6696 100.376 47.4637C100.376 46.4499 101.278 45.7369 102.515 45.7369C103.506 45.7369 104.409 46.2605 104.698 47.2186L103.662 47.5528ZM109.039 51.441C108.66 51.5301 108.348 51.5524 107.981 51.5524C106.766 51.5524 106.131 50.8951 106.131 49.6362V46.9067H105.374V45.9374H106.131V44.4891H107.446V45.9374H108.95V46.9067H107.446V49.6362C107.446 50.2043 107.691 50.4717 108.203 50.4717C108.415 50.4717 108.571 50.4494 108.872 50.4049L109.039 51.441ZM109.567 48.7226C109.567 46.9067 110.648 45.7369 112.308 45.7369C113.956 45.7369 115.026 46.9178 115.026 48.7338V48.9677H110.848C110.926 49.9704 111.505 50.6165 112.374 50.6165C113.132 50.6165 113.644 50.2043 113.834 49.4579L115.026 49.7364C114.681 50.9842 113.711 51.7083 112.374 51.7083C110.681 51.7083 109.567 50.5386 109.567 48.7226ZM110.859 48.3104H113.745C113.644 47.3077 113.11 46.7618 112.308 46.7618C111.528 46.7618 110.982 47.3523 110.859 48.3104ZM116.045 45.9374H117.359V47.0738H117.571C118.228 46.0822 118.808 45.7369 119.565 45.7369C120.613 45.7369 121.225 46.4499 121.225 47.6865V51.5078H119.9V48.0764C119.9 47.2966 119.621 46.9289 119.053 46.9289C118.485 46.9289 117.994 47.3969 117.359 48.5444V51.5078H116.045V45.9374ZM122.455 49.8813H124.093V51.5078H122.455V49.8813ZM127.457 43.7093H133.974V44.879H131.389V51.5078H130.041V44.879H127.457V43.7093ZM133.6 48.7226C133.6 46.9067 134.681 45.7369 136.341 45.7369C137.99 45.7369 139.059 46.9178 139.059 48.7338V48.9677H134.881C134.959 49.9704 135.539 50.6165 136.408 50.6165C137.165 50.6165 137.678 50.2043 137.867 49.4579L139.059 49.7364C138.714 50.9842 137.745 51.7083 136.408 51.7083C134.714 51.7083 133.6 50.5386 133.6 48.7226ZM134.893 48.3104H137.778C137.678 47.3077 137.143 46.7618 136.341 46.7618C135.561 46.7618 135.015 47.3523 134.893 48.3104ZM145.348 49.5693C145.025 51.0176 144.022 51.7083 142.629 51.7083C140.969 51.7083 139.889 50.5497 139.889 48.7226C139.889 46.9067 140.958 45.7369 142.607 45.7369C143.922 45.7369 144.969 46.4499 145.303 47.8425L144.066 48.1322C143.877 47.3523 143.342 46.851 142.652 46.851C141.783 46.851 141.214 47.5863 141.214 48.7226C141.214 49.8478 141.794 50.5831 142.674 50.5831C143.398 50.5831 143.899 50.1264 144.1 49.3131L145.348 49.5693ZM146.269 43.7093H147.583V47.0738H147.795C148.452 46.0822 149.032 45.7369 149.789 45.7369C150.836 45.7369 151.449 46.4499 151.449 47.6865V51.5078H150.123V48.0764C150.123 47.2966 149.845 46.9289 149.277 46.9289C148.708 46.9289 148.218 47.3969 147.583 48.5444V51.5078H146.269V43.7093Z" fill="#222F38"/>
<defs>
<linearGradient id="paint0_linear_6_7366" x1="47.1879" y1="13.598" x2="7.93806" y2="37.4342" gradientUnits="userSpaceOnUse">
<stop stop-color="#FF0000"/>
<stop offset="1" stop-color="#0000FF"/>
</linearGradient>
<linearGradient id="paint1_linear_6_7366" x1="51.3089" y1="32.0989" x2="22.3057" y2="25.0126" gradientUnits="userSpaceOnUse">
<stop stop-color="#FF0000"/>
<stop offset="1" stop-color="#0000FF"/>
</linearGradient>
<linearGradient id="paint2_linear_6_7366" x1="45.012" y1="14.2596" x2="6.75884" y2="37.4904" gradientUnits="userSpaceOnUse">
<stop stop-color="#FF0000"/>
<stop offset="1" stop-color="#0000FF"/>
</linearGradient>
<linearGradient id="paint3_linear_6_7366" x1="43.7249" y1="14.3847" x2="4.47507" y2="38.2208" gradientUnits="userSpaceOnUse">
<stop stop-color="#FF0000"/>
<stop offset="1" stop-color="#0000FF"/>
</linearGradient>
<linearGradient id="paint4_linear_6_7366" x1="29.758" y1="26.8159" x2="0.754763" y2="19.7296" gradientUnits="userSpaceOnUse">
<stop stop-color="#0000FF"/>
<stop offset="1" stop-color="#FF0000"/>
</linearGradient>
</defs>
</svg>
